<?xml version="1.0" encoding="UTF-8" standalone="no"?>
<!-- Created with Inkscape (http://www.inkscape.org/) -->

<svg
   xmlns:dc="http://purl.org/dc/elements/1.1/"
   xmlns:cc="http://creativecommons.org/ns#"
   xmlns:rdf="http://www.w3.org/1999/02/22-rdf-syntax-ns#"
   xmlns:svg="http://www.w3.org/2000/svg"
   xmlns="http://www.w3.org/2000/svg"
   xmlns:sodipodi="http://sodipodi.sourceforge.net/DTD/sodipodi-0.dtd"
   xmlns:inkscape="http://www.inkscape.org/namespaces/inkscape"
   width="512"
   height="512"
   id="svg2"
   sodipodi:version="0.32"
   inkscape:version="0.47pre4 r22446"
   version="1.0"
   sodipodi:docname="Gears.svg"
   inkscape:output_extension="org.inkscape.output.svg.inkscape">
  <defs
     id="defs4">
    <inkscape:perspective
       sodipodi:type="inkscape:persp3d"
       inkscape:vp_x="0 : 256 : 1"
       inkscape:vp_y="0 : 1000 : 0"
       inkscape:vp_z="512 : 256 : 1"
       inkscape:persp3d-origin="256 : 170.66667 : 1"
       id="perspective2935" />
  </defs>
  <sodipodi:namedview
     id="base"
     pagecolor="#ffffff"
     bordercolor="#666666"
     borderopacity="1.0"
     gridtolerance="10000"
     guidetolerance="10"
     objecttolerance="10"
     inkscape:pageopacity="0.0"
     inkscape:pageshadow="2"
     inkscape:zoom="3.2958333"
     inkscape:cx="127.89936"
     inkscape:cy="405.71429"
     inkscape:document-units="px"
     inkscape:current-layer="layer1"
     width="512px"
     height="512px"
     inkscape:window-width="814"
     inkscape:window-height="918"
     inkscape:window-x="0"
     inkscape:window-y="22"
     showgrid="false"
     inkscape:window-maximized="0" />
  <metadata
     id="metadata7">
    <rdf:RDF>
      <cc:Work
         rdf:about="">
        <dc:format>image/svg+xml</dc:format>
        <dc:type
           rdf:resource="http://purl.org/dc/dcmitype/StillImage" />
        <dc:title></dc:title>
      </cc:Work>
    </rdf:RDF>
  </metadata>
  <g
     inkscape:label="Layer 1"
     inkscape:groupmode="layer"
     id="layer1"
     transform="translate(0,-87.219299)">
    <path
       id="path2248"
       d="m 138.39779,198.34371 c -0.0708,-0.0369 -0.148,-0.0965 -0.17157,-0.13246 -0.0236,-0.036 -0.0854,-0.1097 -0.13731,-0.16384 -0.15615,-0.16272 -0.48573,-0.53333 -0.63056,-0.70907 -0.3318,-0.40259 -0.79912,-0.93532 -1.24097,-1.41465 -0.11491,-0.12466 -0.22111,-0.24869 -0.236,-0.27561 -0.0149,-0.0269 -0.1244,-0.15771 -0.24334,-0.29065 -0.11895,-0.13293 -0.2304,-0.26811 -0.24768,-0.30038 -0.0173,-0.0323 -0.0595,-0.0743 -0.0938,-0.0934 -0.0607,-0.0338 -0.13532,-0.0434 -0.80442,-0.10325 -0.17712,-0.0159 -0.36275,-0.041 -0.41252,-0.056 -0.0498,-0.0149 -0.27658,-0.0355 -0.50404,-0.0456 l -0.41355,-0.0185 -0.15693,0.12135 c -0.20304,0.15701 -0.36534,0.29144 -0.51056,0.42288 -0.22872,0.20701 -0.4678,0.40701 -0.76093,0.63655 -0.0885,0.0693 -0.23176,0.1869 -0.31833,0.26132 -0.0866,0.0744 -0.20781,0.17847 -0.26942,0.23123 -0.0616,0.0527 -0.15611,0.1341 -0.21001,0.18076 -0.10297,0.0892 -0.27101,0.2274 -0.56005,0.46079 -0.28438,0.22962 -0.45702,0.3752 -0.54604,0.46047 -0.0462,0.0442 -0.13936,0.10797 -0.207,0.14161 l -0.12298,0.0612 -0.15704,-0.0759 c -0.0864,-0.0417 -0.1824,-0.099 -0.2134,-0.12724 -0.031,-0.0283 -0.1192,-0.0787 -0.19602,-0.11203 -0.0768,-0.0334 -0.17134,-0.0902 -0.21006,-0.12629 -0.0387,-0.0361 -0.12519,-0.085 -0.19217,-0.1086 -0.067,-0.0236 -0.16489,-0.0808 -0.21759,-0.1271 -0.0527,-0.0463 -0.11173,-0.0841 -0.13118,-0.0841 -0.0194,0 -0.12167,-0.0567 -0.22719,-0.12601 -0.10552,-0.0693 -0.20845,-0.12601 -0.22873,-0.12601 -0.0203,0 -0.08,-0.0379 -0.1327,-0.0841 -0.0527,-0.0463 -0.14798,-0.10253 -0.21172,-0.12502 -0.0637,-0.0225 -0.18488,-0.10045 -0.26918,-0.17323 -0.18109,-0.15634 -0.18609,-0.1875 -0.0841,-0.52364 0.0381,-0.12544 0.0887,-0.39818 0.11257,-0.6061 0.0238,-0.20792 0.0743,-0.48514 0.11223,-0.61605 0.0379,-0.13091 0.0883,-0.40813 0.11202,-0.61605 0.0237,-0.20792 0.074,-0.48627 0.11178,-0.61857 0.0377,-0.13229 0.0882,-0.40951 0.11198,-0.61605 0.0238,-0.20653 0.074,-0.48262 0.1115,-0.61354 0.12382,-0.43257 0.12534,-0.41263 -0.0542,-0.71356 -0.0875,-0.14658 -0.16874,-0.26652 -0.18059,-0.26652 -0.0118,0 -0.0549,-0.0614 -0.0958,-0.1364 -0.0408,-0.075 -0.0942,-0.15299 -0.11864,-0.17326 -0.0244,-0.0203 -0.0737,-0.0943 -0.10946,-0.16462 -0.0358,-0.0703 -0.0978,-0.15832 -0.13782,-0.19565 -0.04,-0.0373 -0.0728,-0.0832 -0.0728,-0.102 0,-0.0676 -0.31985,-0.4594 -0.40989,-0.50213 -0.05,-0.0237 -0.2379,-0.0624 -0.4175,-0.086 -0.17958,-0.0236 -0.42493,-0.0739 -0.54518,-0.1119 -0.12026,-0.038 -0.36599,-0.0884 -0.54604,-0.11201 -0.18007,-0.0236 -0.42713,-0.0744 -0.54903,-0.11295 -0.1219,-0.0385 -0.36745,-0.0881 -0.54565,-0.11021 -0.17821,-0.0221 -0.42654,-0.0726 -0.55187,-0.11217 -0.12532,-0.0396 -0.37487,-0.0902 -0.55456,-0.11243 -0.3571,-0.0442 -0.65645,-0.12492 -0.75286,-0.20298 -0.0497,-0.0403 -0.0661,-0.0933 -0.0842,-0.27275 -0.028,-0.27794 -0.0477,-0.39162 -0.11368,-0.6583 -0.0288,-0.11632 -0.0723,-0.43135 -0.0967,-0.70006 -0.0254,-0.28018 -0.0735,-0.60419 -0.11282,-0.75965 -0.0377,-0.14911 -0.0685,-0.32056 -0.0685,-0.38101 0,-0.10103 0.0129,-0.11952 0.15934,-0.22906 0.0876,-0.0655 0.20849,-0.13651 0.26857,-0.15771 0.0601,-0.0212 0.1455,-0.069 0.18982,-0.10634 0.0443,-0.0373 0.1425,-0.0884 0.21817,-0.11351 0.0757,-0.0251 0.15969,-0.0701 0.1867,-0.1 0.027,-0.0299 0.11984,-0.0806 0.20631,-0.11288 0.0865,-0.0322 0.18253,-0.0823 0.21349,-0.11117 0.031,-0.0289 0.1308,-0.0855 0.22189,-0.12578 0.0911,-0.0403 0.1957,-0.0969 0.23249,-0.12585 0.0368,-0.0289 0.11334,-0.0677 0.17014,-0.0861 0.0568,-0.0184 0.13992,-0.0601 0.18473,-0.0926 0.0824,-0.0598 0.31565,-0.1846 0.67513,-0.36126 0.10811,-0.0531 0.21304,-0.11645 0.23317,-0.14072 0.0201,-0.0243 0.0991,-0.0648 0.17535,-0.0902 0.0763,-0.0253 0.17412,-0.0759 0.21738,-0.11226 0.0433,-0.0364 0.14682,-0.0919 0.23014,-0.12342 0.0833,-0.0315 0.20946,-0.11086 0.28031,-0.1764 0.11353,-0.10503 0.13241,-0.13967 0.15926,-0.29213 0.0168,-0.0951 0.0631,-0.24205 0.10311,-0.32649 0.0399,-0.0844 0.0909,-0.24914 0.11328,-0.36598 0.0224,-0.11685 0.0706,-0.27231 0.10721,-0.34546 0.0748,-0.14955 0.1584,-0.49247 0.1584,-0.65004 0,-0.14943 -0.0672,-0.35179 -0.15525,-0.46716 -0.0418,-0.0548 -0.0927,-0.15511 -0.11309,-0.22295 -0.0204,-0.0678 -0.0682,-0.16421 -0.10627,-0.21416 -0.038,-0.05 -0.0958,-0.16213 -0.12836,-0.24929 -0.0326,-0.0871 -0.0771,-0.17336 -0.0991,-0.19157 -0.0219,-0.0182 -0.0658,-0.10245 -0.0976,-0.18722 -0.0317,-0.0848 -0.0879,-0.19387 -0.12474,-0.24247 -0.0369,-0.0486 -0.0927,-0.15592 -0.12391,-0.2385 -0.0313,-0.0826 -0.0766,-0.17196 -0.10069,-0.19862 -0.0241,-0.0267 -0.0739,-0.12525 -0.11073,-0.2191 -0.0368,-0.0939 -0.0984,-0.2124 -0.1369,-0.26343 -0.0385,-0.051 -0.0831,-0.14102 -0.0991,-0.19998 -0.016,-0.059 -0.0611,-0.14912 -0.10016,-0.20036 -0.0391,-0.0512 -0.097,-0.16251 -0.12872,-0.24727 -0.0317,-0.0848 -0.0756,-0.16902 -0.0975,-0.18723 -0.0219,-0.0182 -0.0663,-0.10379 -0.0987,-0.19018 -0.0323,-0.0864 -0.0958,-0.20744 -0.14107,-0.26899 -0.1302,-0.17704 -0.11433,-0.2492 0.10525,-0.4789 0.10307,-0.10781 0.30706,-0.32833 0.45331,-0.49005 0.14626,-0.16171 0.36748,-0.4015 0.4916,-0.53287 0.12412,-0.13137 0.35133,-0.3739 0.50493,-0.53895 0.22252,-0.23912 0.29912,-0.30382 0.37694,-0.31842 0.12644,-0.0237 0.30109,0.024 0.46271,0.12654 0.0708,0.0449 0.17569,0.0903 0.233,0.10095 0.0573,0.0106 0.16946,0.0565 0.24923,0.10189 0.0798,0.0454 0.21075,0.10214 0.29108,0.126 0.0803,0.0239 0.19344,0.0747 0.25136,0.11305 0.0579,0.0383 0.17721,0.0885 0.26513,0.11142 0.0879,0.023 0.20747,0.0733 0.2657,0.11179 0.0582,0.0385 0.17154,0.0874 0.25183,0.10856 0.0803,0.0212 0.19214,0.0691 0.24857,0.10641 0.0564,0.0373 0.17623,0.0893 0.26622,0.11546 0.09,0.0262 0.2114,0.0792 0.2698,0.11783 0.0584,0.0386 0.17809,0.0891 0.26601,0.11201 0.0879,0.023 0.20609,0.0723 0.26261,0.10975 0.0565,0.0374 0.16771,0.0873 0.24705,0.11086 0.0794,0.0236 0.21749,0.0814 0.30698,0.12843 0.18572,0.0977 0.26602,0.0945 0.43525,-0.0175 0.0579,-0.0383 0.1715,-0.0833 0.25248,-0.10009 0.081,-0.0168 0.21191,-0.0663 0.29096,-0.11014 0.079,-0.0438 0.22396,-0.10017 0.32203,-0.12519 0.0981,-0.025 0.22503,-0.076 0.28214,-0.11325 0.0571,-0.0373 0.16421,-0.081 0.23802,-0.0972 0.0738,-0.0162 0.15573,-0.0359 0.18206,-0.0439 0.0675,-0.0204 0.29575,-0.37328 0.34291,-0.52998 0.0217,-0.072 0.071,-0.17871 0.10964,-0.23707 0.0386,-0.0584 0.0902,-0.17481 0.11459,-0.25877 0.0244,-0.084 0.0753,-0.19455 0.11306,-0.24574 0.0377,-0.0512 0.0886,-0.16176 0.11303,-0.24573 0.0244,-0.084 0.0748,-0.19866 0.11204,-0.25489 0.0372,-0.0562 0.086,-0.16312 0.10838,-0.23755 0.0224,-0.0744 0.0723,-0.18308 0.11095,-0.24145 0.0386,-0.0584 0.0902,-0.17481 0.1146,-0.25877 0.0244,-0.084 0.0753,-0.19454 0.11305,-0.24573 0.0378,-0.0512 0.0875,-0.15719 0.11048,-0.23555 0.023,-0.0784 0.0727,-0.18766 0.11055,-0.24288 0.0378,-0.0552 0.0889,-0.16974 0.11354,-0.25449 0.0246,-0.0847 0.0757,-0.19597 0.11347,-0.24716 0.0378,-0.0512 0.0889,-0.16349 0.11374,-0.24955 0.0481,-0.167 0.11223,-0.25317 0.25318,-0.34029 0.0799,-0.0494 0.0978,-0.0508 0.19831,-0.0153 0.073,0.0258 0.42802,0.0546 1.04672,0.0849 0.51494,0.0253 1.02154,0.0581 1.12579,0.0731 0.10425,0.0149 0.23906,0.0271 0.2996,0.0271 0.0914,0 0.1217,0.0154 0.17875,0.091 0.10681,0.14154 0.21443,0.42636 0.26021,0.6886 0.0229,0.13147 0.0716,0.31006 0.10814,0.39686 0.0365,0.0868 0.0863,0.27234 0.11059,0.41233 0.0243,0.13999 0.0764,0.32502 0.11588,0.41119 0.0394,0.0862 0.0895,0.26683 0.11114,0.40146 0.0217,0.13462 0.0703,0.31408 0.10801,0.39879 0.0377,0.0847 0.0889,0.27142 0.11362,0.41492 0.0248,0.14351 0.0758,0.33051 0.11343,0.41556 0.0376,0.0851 0.0884,0.27008 0.1129,0.41115 0.0741,0.42726 0.18636,0.57128 0.62549,0.80254 0.0731,0.0385 0.17612,0.1031 0.22894,0.14354 0.0528,0.0404 0.14172,0.0882 0.19761,0.10607 0.0559,0.0179 0.12296,0.0561 0.14902,0.0849 0.0261,0.0288 0.11264,0.08 0.1924,0.11386 0.0798,0.0338 0.1767,0.0912 0.21542,0.12751 0.0868,0.0813 0.28069,0.15223 0.41616,0.15211 0.172,-1.1e-4 0.589,-0.0834 0.78263,-0.15633 0.10127,-0.0381 0.30446,-0.0886 0.45154,-0.1123 0.14709,-0.0236 0.32316,-0.0676 0.39127,-0.0977 0.0681,-0.0301 0.23193,-0.0743 0.36403,-0.0983 0.13211,-0.024 0.3599,-0.0805 0.50622,-0.12569 0.1463,-0.0452 0.37432,-0.10098 0.50669,-0.12405 0.13236,-0.0231 0.32999,-0.0732 0.43917,-0.1113 0.10916,-0.0381 0.30959,-0.0884 0.44538,-0.11163 0.13579,-0.0233 0.2955,-0.0638 0.35491,-0.0901 0.10672,-0.0472 0.10984,-0.0469 0.25549,0.0294 0.11105,0.0581 0.15965,0.10426 0.19688,0.1868 0.0272,0.0603 0.0742,0.13203 0.10457,0.15943 0.0303,0.0274 0.084,0.10654 0.11935,0.17585 0.0353,0.0693 0.097,0.15656 0.13699,0.19389 0.04,0.0373 0.0728,0.0834 0.0728,0.10236 0,0.019 0.044,0.0871 0.0977,0.15143 0.0537,0.0643 0.12134,0.16948 0.15022,0.23367 0.0289,0.0642 0.0857,0.14726 0.1263,0.1846 0.0406,0.0373 0.0738,0.0834 0.0738,0.10236 0,0.019 0.0451,0.0885 0.10022,0.15443 0.0551,0.066 0.13094,0.18058 0.16848,0.25467 0.0376,0.0741 0.0797,0.13471 0.0938,0.13471 0.0344,0 0.16959,0.28966 0.16959,0.36341 0,0.0733 -0.0921,0.25726 -0.15481,0.30931 -0.0258,0.0214 -0.0897,0.10247 -0.14212,0.18014 -0.0524,0.0777 -0.15182,0.21683 -0.22099,0.30924 -0.0692,0.0924 -0.1479,0.20475 -0.17496,0.24965 -0.0271,0.0449 -0.0933,0.13173 -0.14719,0.19296 -0.0539,0.0612 -0.12321,0.15199 -0.15402,0.20168 -0.0836,0.13493 -0.21112,0.30975 -0.32902,0.45122 -0.0578,0.0693 -0.10501,0.13795 -0.10501,0.15255 0,0.0146 -0.0391,0.0674 -0.0868,0.11731 -0.0478,0.0499 -0.10632,0.12855 -0.13012,0.17476 -0.0238,0.0462 -0.0856,0.13353 -0.13719,0.19405 -0.0516,0.0605 -0.0939,0.12433 -0.0939,0.14178 0,0.0174 -0.0389,0.0687 -0.0865,0.11397 -0.0476,0.0452 -0.10599,0.12005 -0.12981,0.16625 -0.0238,0.0462 -0.0857,0.1313 -0.13752,0.1891 -0.0518,0.0578 -0.0942,0.11688 -0.0942,0.1313 0,0.0144 -0.0504,0.0845 -0.11201,0.15564 -0.0616,0.0712 -0.112,0.14234 -0.112,0.15814 0,0.0158 -0.0386,0.0825 -0.0858,0.1482 l -0.0858,0.11947 0.0706,0.29114 c 0.0388,0.16012 0.0907,0.5084 0.11528,0.77396 0.0696,0.7516 0.12309,0.90999 0.37572,1.11331 0.0957,0.077 0.22667,0.18471 0.29105,0.23935 0.0644,0.0546 0.14857,0.12129 0.18708,0.14811 0.0385,0.0268 0.14103,0.10182 0.22784,0.16668 0.0868,0.0649 0.2115,0.15571 0.2771,0.20192 0.0656,0.0462 0.15208,0.11605 0.19219,0.15521 0.0401,0.0392 0.12018,0.10005 0.17794,0.1353 0.0577,0.0353 0.10501,0.0751 0.10501,0.0886 0,0.0135 0.0598,0.0589 0.13301,0.10092 0.0732,0.042 0.17999,0.11499 0.2374,0.16219 0.0574,0.0472 0.16453,0.13352 0.23802,0.19182 0.0735,0.0583 0.19425,0.15596 0.26834,0.21702 0.0741,0.0611 0.14349,0.11101 0.15421,0.11101 0.0107,0 0.0886,0.0567 0.17312,0.12602 0.0845,0.0693 0.16743,0.12601 0.18431,0.12601 0.0169,0 0.0708,0.0441 0.11989,0.098 0.049,0.0539 0.10075,0.098 0.11488,0.098 0.0404,0 0.3489,0.27885 0.36953,0.33404 0.0281,0.0752 -0.0478,0.42667 -0.12529,0.5801 -0.0378,0.0748 -0.0893,0.23618 -0.11453,0.35868 -0.0252,0.1225 -0.0775,0.2918 -0.11616,0.37622 -0.0386,0.0844 -0.0898,0.24808 -0.11367,0.36367 -0.0239,0.11559 -0.0727,0.26798 -0.10852,0.33865 -0.0358,0.0707 -0.0872,0.23979 -0.11424,0.37583 -0.0766,0.38566 -0.18915,0.47333 -0.59372,0.46239 -0.34011,-0.009 -1.30648,0.0353 -1.40664,0.0647 -0.10559,0.031 -0.57402,0.056 -1.96016,0.10466 l -0.88208,0.0309 -0.25798,0.27222 c -0.14188,0.14973 -0.35974,0.37934 -0.48412,0.51025 -0.44591,0.46929 -0.59431,0.63103 -0.63644,0.69364 -0.0366,0.0543 -0.0422,0.20704 -0.0388,1.05009 0.004,1.00056 0.0445,2.82637 0.0741,3.34 0.0143,0.2487 0.0103,0.28634 -0.0343,0.32445 -0.10262,0.0876 -0.43204,0.24767 -0.59874,0.29086 -0.0945,0.0245 -0.21979,0.0748 -0.27842,0.11182 -0.0586,0.037 -0.18958,0.0865 -0.29101,0.11005 -0.10142,0.0235 -0.23167,0.0736 -0.28943,0.11131 -0.0578,0.0377 -0.18526,0.089 -0.28334,0.11404 -0.0981,0.025 -0.24298,0.0812 -0.32203,0.12484 -0.079,0.0436 -0.19353,0.0881 -0.25441,0.0987 -0.0609,0.0107 -0.15805,0.0435 -0.2159,0.073 -0.12476,0.0636 -0.0934,0.0657 -0.25014,-0.016 z m -2.86754,-9.06585 c 0.10781,-0.015 0.25902,-0.0516 0.33603,-0.0812 0.077,-0.0297 0.23357,-0.0722 0.34792,-0.0946 0.11863,-0.0232 0.25091,-0.0702 0.30803,-0.10936 0.0551,-0.0378 0.17142,-0.0952 0.25857,-0.12748 0.0872,-0.0323 0.17452,-0.0781 0.19415,-0.10177 0.0196,-0.0236 0.0869,-0.0689 0.14955,-0.10065 0.14681,-0.0743 0.54866,-0.42885 0.73551,-0.64888 0.0801,-0.0943 0.18685,-0.21825 0.23729,-0.27547 0.0504,-0.0572 0.10754,-0.14979 0.12691,-0.20572 0.0194,-0.0559 0.0713,-0.1428 0.11542,-0.19305 0.0441,-0.0503 0.0955,-0.153 0.11424,-0.22832 0.0187,-0.0753 0.0651,-0.18223 0.10308,-0.23757 0.0486,-0.0708 0.0851,-0.19118 0.12293,-0.40603 0.0296,-0.16798 0.073,-0.40623 0.0963,-0.52944 0.0695,-0.3672 0.0622,-0.46889 -0.0948,-1.31356 -0.0344,-0.18523 -0.0831,-0.35057 -0.12377,-0.42003 -0.0369,-0.063 -0.0858,-0.17757 -0.1088,-0.25457 -0.023,-0.077 -0.0842,-0.20445 -0.13606,-0.28319 -0.0518,-0.0788 -0.11648,-0.17956 -0.14362,-0.22402 -0.12842,-0.21041 -0.19441,-0.28969 -0.46077,-0.55352 -0.35606,-0.35268 -0.46083,-0.43942 -0.63973,-0.52959 -0.078,-0.0393 -0.15771,-0.0907 -0.17718,-0.11411 -0.0195,-0.0234 -0.10058,-0.0636 -0.18025,-0.0892 -0.0797,-0.0256 -0.18918,-0.0764 -0.24335,-0.11284 -0.058,-0.039 -0.2077,-0.0889 -0.36403,-0.12128 -0.14604,-0.0303 -0.32175,-0.0751 -0.39045,-0.0996 -0.33452,-0.1192 -1.15292,-0.0994 -1.4902,0.0361 -0.0412,0.0166 -0.17958,0.05 -0.30742,0.0742 -0.14385,0.0273 -0.2703,0.0703 -0.33176,0.11292 -0.0546,0.0379 -0.156,0.0859 -0.22529,0.10674 -0.0693,0.0208 -0.18649,0.0841 -0.26046,0.14056 -0.074,0.0565 -0.14774,0.10266 -0.16395,0.10266 -0.0162,0 -0.0772,0.041 -0.13549,0.091 -0.0583,0.0501 -0.2085,0.17921 -0.33375,0.28702 -0.12524,0.10781 -0.26624,0.25587 -0.31331,0.32903 -0.0471,0.0731 -0.0959,0.13301 -0.10841,0.13301 -0.0125,0 -0.051,0.0472 -0.0855,0.10501 -0.0345,0.0577 -0.0918,0.13669 -0.12721,0.17541 -0.0354,0.0387 -0.0844,0.12693 -0.1087,0.19601 -0.0243,0.0691 -0.0745,0.16972 -0.1114,0.22363 -0.0369,0.0539 -0.0825,0.16101 -0.10126,0.23802 -0.0187,0.077 -0.071,0.23297 -0.11607,0.34659 -0.11164,0.28136 -0.15257,0.78256 -0.11193,1.37078 0.0242,0.35028 0.0409,0.44592 0.10158,0.58293 0.04,0.0901 0.0903,0.24986 0.11189,0.35492 0.0234,0.11398 0.0635,0.21686 0.0994,0.2551 0.0331,0.0353 0.0858,0.13201 0.11715,0.21502 0.0313,0.083 0.0854,0.18243 0.12023,0.22093 0.0348,0.0385 0.0965,0.12845 0.13721,0.19988 0.0731,0.12839 0.54811,0.62433 0.76816,0.80199 0.0625,0.0505 0.15589,0.11243 0.20743,0.13765 0.0516,0.0252 0.1279,0.074 0.16964,0.10849 0.0417,0.0344 0.13625,0.0852 0.21002,0.11285 0.0738,0.0276 0.17871,0.0792 0.23321,0.11456 0.0545,0.0354 0.21203,0.0887 0.35003,0.11846 0.13802,0.0298 0.30134,0.0759 0.36295,0.10259 0.20418,0.0883 0.84187,0.11917 1.2601,0.0609 z m -24.76178,-3.99831 c -0.037,-0.0151 -0.087,-0.0804 -0.11926,-0.15555 -0.0305,-0.0713 -0.08,-0.16063 -0.10988,-0.19863 -0.0299,-0.038 -0.0748,-0.13961 -0.0999,-0.2258 -0.0251,-0.0862 -0.0763,-0.19697 -0.11381,-0.24619 -0.0375,-0.0492 -0.0891,-0.15107 -0.11454,-0.22634 -0.0255,-0.0753 -0.0766,-0.18289 -0.11354,-0.23915 -0.037,-0.0563 -0.0856,-0.16319 -0.10798,-0.23762 -0.0224,-0.0744 -0.0709,-0.18094 -0.1078,-0.23668 -0.0369,-0.0557 -0.0864,-0.16642 -0.11002,-0.24597 -0.0236,-0.0795 -0.0805,-0.19792 -0.12645,-0.26308 -0.0459,-0.0652 -0.0967,-0.1692 -0.11274,-0.23121 -0.0161,-0.062 -0.0607,-0.15541 -0.0992,-0.20755 -0.0385,-0.0521 -0.0899,-0.1635 -0.11432,-0.24746 -0.0244,-0.084 -0.076,-0.20041 -0.1146,-0.25877 -0.0386,-0.0584 -0.0885,-0.16688 -0.11086,-0.24114 -0.0224,-0.0743 -0.0711,-0.17945 -0.10837,-0.23374 -0.0373,-0.0543 -0.0938,-0.16909 -0.12574,-0.25511 -0.0663,-0.17864 -0.13693,-0.25538 -0.29584,-0.3212 -0.0614,-0.0254 -0.16499,-0.0704 -0.23021,-0.0999 -0.0652,-0.0295 -0.21879,-0.0726 -0.34127,-0.0959 -0.12248,-0.0232 -0.28964,-0.0726 -0.37146,-0.10967 -0.0818,-0.0371 -0.25587,-0.0875 -0.38678,-0.112 -0.13092,-0.0245 -0.29819,-0.076 -0.37172,-0.11447 -0.0735,-0.0384 -0.18752,-0.0773 -0.25329,-0.0863 -0.10178,-0.014 -0.13259,-0.005 -0.20695,0.0571 -0.048,0.0404 -0.15459,0.10332 -0.23676,0.13976 -0.0822,0.0364 -0.17433,0.094 -0.20482,0.12783 -0.0305,0.0339 -0.0978,0.0793 -0.14952,0.10089 -0.0517,0.0216 -0.13227,0.0715 -0.17896,0.11074 -0.0467,0.0393 -0.13062,0.0905 -0.18651,0.11388 -0.0559,0.0234 -0.13313,0.0719 -0.17164,0.10789 -0.0385,0.036 -0.12187,0.0914 -0.18527,0.12319 -0.0634,0.0318 -0.15161,0.0881 -0.19602,0.12526 -0.0444,0.0371 -0.10993,0.0766 -0.14559,0.0878 -0.0357,0.0112 -0.10668,0.057 -0.15782,0.10193 -0.0511,0.0449 -0.14166,0.1017 -0.20117,0.12623 -0.0595,0.0245 -0.13701,0.0712 -0.17221,0.10373 -0.0614,0.0567 -0.13099,0.10043 -0.4547,0.28552 -0.0808,0.0462 -0.18789,0.1187 -0.23795,0.16111 -0.0501,0.0424 -0.13972,0.0971 -0.19923,0.12161 -0.0595,0.0245 -0.13971,0.0742 -0.17821,0.11044 -0.0385,0.0362 -0.11425,0.0844 -0.16831,0.10697 -0.0541,0.0226 -0.13298,0.0732 -0.17536,0.11247 -0.0919,0.0851 -0.26876,0.14347 -0.36321,0.11977 -0.0373,-0.009 -0.11724,-0.0563 -0.17755,-0.10421 -0.0603,-0.048 -0.15376,-0.1056 -0.20766,-0.12813 -0.0539,-0.0225 -0.12952,-0.0704 -0.16802,-0.10628 -0.0385,-0.0359 -0.11193,-0.0865 -0.16318,-0.11237 -0.0512,-0.0259 -0.14987,-0.0903 -0.21916,-0.14321 -0.0693,-0.0529 -0.14197,-0.0962 -0.16151,-0.0962 -0.0195,0 -0.0595,-0.0266 -0.0889,-0.0591 -0.0293,-0.0325 -0.12265,-0.0941 -0.20736,-0.13695 -0.0847,-0.0428 -0.17697,-0.10331 -0.20504,-0.13439 -0.0281,-0.0311 -0.0911,-0.0726 -0.14001,-0.0922 -0.0489,-0.0196 -0.12543,-0.0656 -0.16998,-0.10212 -0.0446,-0.0365 -0.14171,-0.0972 -0.21592,-0.1348 -0.18233,-0.0924 -0.20787,-0.18527 -0.16604,-0.60373 0.0303,-0.30346 0.0441,-0.38802 0.12454,-0.76692 0.0229,-0.10781 0.0613,-0.42284 0.0853,-0.70006 0.024,-0.27722 0.0749,-0.65592 0.11304,-0.84156 0.0381,-0.18563 0.088,-0.55736 0.11078,-0.82607 0.0228,-0.2687 0.0659,-0.60721 0.0957,-0.75223 0.0298,-0.14503 0.0466,-0.28364 0.0373,-0.30803 -0.0202,-0.0527 -0.17964,-0.26471 -0.2747,-0.3651 -0.20788,-0.21957 -0.866431,-0.97871 -1.016201,-1.17142 -0.0513,-0.066 -0.14178,-0.1448 -0.20102,-0.17502 -0.10436,-0.0532 -0.17739,-0.0549 -2.353,-0.0549 l -2.2453,0 -0.13235,-0.13301 c -0.10046,-0.10097 -0.14386,-0.17292 -0.18014,-0.29864 -0.0263,-0.0911 -0.0787,-0.2108 -0.11653,-0.26602 -0.0378,-0.0552 -0.0876,-0.16451 -0.11056,-0.24288 -0.023,-0.0784 -0.0727,-0.18436 -0.11048,-0.23555 -0.0378,-0.0512 -0.0886,-0.16177 -0.11304,-0.24573 -0.0244,-0.084 -0.076,-0.20041 -0.1146,-0.25878 -0.0386,-0.0584 -0.0885,-0.167 -0.11095,-0.24144 -0.0224,-0.0744 -0.0726,-0.18353 -0.11162,-0.24245 -0.086,-0.12988 -0.16586,-0.43603 -0.14034,-0.5377 0.0102,-0.0407 0.059,-0.11605 0.10854,-0.16751 0.0495,-0.0515 0.15299,-0.17164 0.22999,-0.26706 0.15955,-0.19769 0.36503,-0.44202 0.49759,-0.59164 0.0498,-0.0562 0.14087,-0.1601 0.20247,-0.23099 0.0616,-0.0709 0.15611,-0.17744 0.21002,-0.23679 0.0539,-0.0593 0.16101,-0.18741 0.23802,-0.28458 0.15236,-0.19224 0.51087,-0.61903 0.67007,-0.79767 0.10166,-0.11408 0.14795,-0.16703 0.54435,-0.62274 0.14716,-0.16917 0.23104,-0.29067 0.24237,-0.35109 0.024,-0.12776 -0.0358,-0.74326 -0.0985,-1.01434 -0.0549,-0.23729 -0.0961,-0.51334 -0.13733,-0.92058 -0.0289,-0.28484 -0.0683,-0.35602 -0.25962,-0.46841 -0.0688,-0.0404 -0.15838,-0.10675 -0.19897,-0.14734 -0.0406,-0.0406 -0.0923,-0.0738 -0.11493,-0.0738 -0.0226,0 -0.0981,-0.0435 -0.16777,-0.0967 -0.0697,-0.0532 -0.17542,-0.12155 -0.23504,-0.15196 -0.0596,-0.0304 -0.12561,-0.0761 -0.14665,-0.1014 -0.021,-0.0254 -0.087,-0.071 -0.14666,-0.1014 -0.0596,-0.0304 -0.16539,-0.0988 -0.23504,-0.15196 -0.0697,-0.0532 -0.14237,-0.0967 -0.16161,-0.0967 -0.0192,0 -0.0655,-0.0332 -0.10287,-0.0738 -0.0373,-0.0406 -0.12088,-0.0976 -0.18565,-0.12677 -0.0648,-0.0291 -0.15297,-0.0824 -0.19601,-0.11838 -0.043,-0.036 -0.1295,-0.0914 -0.19214,-0.1232 -0.0626,-0.0318 -0.1311,-0.0785 -0.15214,-0.10388 -0.021,-0.0254 -0.0895,-0.0718 -0.15214,-0.10314 -0.0626,-0.0314 -0.14538,-0.0865 -0.18388,-0.12248 -0.0385,-0.036 -0.11437,-0.084 -0.16859,-0.10662 -0.0542,-0.0226 -0.12352,-0.0689 -0.15401,-0.10276 -0.0305,-0.0339 -0.11844,-0.0896 -0.19545,-0.12379 -0.077,-0.0342 -0.15812,-0.0841 -0.18025,-0.11093 -0.0221,-0.0268 -0.0987,-0.0783 -0.17019,-0.11456 -0.13024,-0.066 -0.25515,-0.19992 -0.29036,-0.31131 -0.0104,-0.033 0.0195,-0.23893 0.0671,-0.46204 0.0472,-0.2214 0.10472,-0.61045 0.12778,-0.86458 0.0231,-0.25412 0.0611,-0.53764 0.0846,-0.63005 0.0235,-0.0924 0.0667,-0.30032 0.096,-0.46204 0.0632,-0.34867 0.0815,-0.36964 0.36241,-0.41603 0.10998,-0.0182 0.25916,-0.064 0.33149,-0.10179 0.0723,-0.0378 0.23768,-0.0889 0.36743,-0.1135 0.12975,-0.0246 0.29356,-0.0739 0.36403,-0.10956 0.0705,-0.0356 0.23523,-0.0862 0.36614,-0.11236 0.13091,-0.0262 0.30502,-0.0788 0.38691,-0.1169 0.0819,-0.0381 0.24353,-0.0875 0.35921,-0.1096 0.11568,-0.0221 0.2944,-0.0766 0.39716,-0.12115 0.10276,-0.0445 0.27363,-0.0956 0.37973,-0.11356 0.10609,-0.018 0.25415,-0.0637 0.32902,-0.10163 0.0749,-0.0379 0.23331,-0.0876 0.35208,-0.1103 0.33337,-0.0638 0.38618,-0.0892 0.54802,-0.26403 0.1161,-0.12541 0.16151,-0.20105 0.19734,-0.32872 0.0256,-0.0912 0.0778,-0.2082 0.11599,-0.25999 0.0382,-0.0518 0.0894,-0.16284 0.11384,-0.24681 0.0244,-0.084 0.0748,-0.19866 0.11203,-0.25488 0.0372,-0.0562 0.0857,-0.16214 0.10772,-0.23537 0.022,-0.0732 0.0822,-0.19875 0.13366,-0.27894 0.0876,-0.13645 0.0936,-0.1613 0.0936,-0.38686 0,-0.22267 -0.007,-0.2521 -0.09,-0.38593 -0.0495,-0.0797 -0.10944,-0.2104 -0.13322,-0.29048 -0.0238,-0.0801 -0.0754,-0.19205 -0.11478,-0.24883 -0.0393,-0.0568 -0.0889,-0.16892 -0.11005,-0.2492 -0.0212,-0.0803 -0.0691,-0.19213 -0.1064,-0.24856 -0.0374,-0.0564 -0.0893,-0.17623 -0.11547,-0.26622 -0.0262,-0.09 -0.0792,-0.21137 -0.11778,-0.26973 -0.0386,-0.0584 -0.0885,-0.16701 -0.11095,-0.24145 -0.0224,-0.0744 -0.0712,-0.18133 -0.10839,-0.23755 -0.0372,-0.0562 -0.0876,-0.17093 -0.11203,-0.25489 -0.0244,-0.084 -0.0753,-0.19454 -0.11304,-0.24573 -0.0378,-0.0512 -0.0886,-0.16177 -0.11305,-0.24574 -0.0244,-0.084 -0.076,-0.20041 -0.1146,-0.25877 -0.0386,-0.0584 -0.0885,-0.16701 -0.11095,-0.24144 -0.0224,-0.0744 -0.0723,-0.18307 -0.11094,-0.24143 -0.0758,-0.11457 -0.1339,-0.35375 -0.10526,-0.43347 0.01,-0.0271 0.0566,-0.0885 0.10424,-0.13652 0.0476,-0.048 0.13306,-0.1425 0.18993,-0.21002 0.0569,-0.0675 0.17028,-0.20236 0.25202,-0.29963 0.49389,-0.58774 0.89251,-1.04032 1.14522,-1.30026 0.1858,-0.19112 0.23807,-0.1995 0.49275,-0.079 0.0953,0.0451 0.2843,0.10254 0.42004,0.12771 0.13573,0.0252 0.3139,0.0762 0.39593,0.11346 0.082,0.0372 0.25632,0.0864 0.38732,0.10928 0.131,0.0229 0.30693,0.0731 0.39094,0.11151 0.084,0.0385 0.199551,0.0775 0.256731,0.0867 0.2301,0.0371 0.39199,0.0799 0.54927,0.14512 0.0909,0.0377 0.27238,0.0873 0.4033,0.11012 0.13091,0.0228 0.29647,0.0712 0.3679,0.10736 0.0714,0.0362 0.24368,0.0855 0.38278,0.10946 0.1391,0.024 0.30871,0.069 0.37691,0.0999 0.16624,0.0754 0.26667,0.072 0.36712,-0.0125 0.0458,-0.0385 0.10016,-0.07 0.1209,-0.07 0.0207,0 0.0975,-0.0456 0.17054,-0.10139 0.0731,-0.0558 0.17193,-0.11773 0.21973,-0.1377 0.0478,-0.02 0.11185,-0.0644 0.14234,-0.0987 0.0305,-0.0343 0.10843,-0.0861 0.1732,-0.11508 0.0648,-0.029 0.15298,-0.0821 0.19602,-0.118 0.043,-0.0359 0.12236,-0.0874 0.17626,-0.11445 0.0539,-0.027 0.12951,-0.078 0.16801,-0.11328 0.0385,-0.0353 0.12963,-0.0918 0.20249,-0.12565 0.16276,-0.0756 0.23073,-0.18006 0.2731,-0.41987 0.0177,-0.1001 0.0557,-0.27652 0.0844,-0.39203 0.0287,-0.11551 0.0726,-0.42038 0.0975,-0.6775 0.0249,-0.25711 0.0752,-0.59104 0.11171,-0.74206 0.0365,-0.15102 0.0868,-0.4825 0.11184,-0.73662 0.025,-0.25412 0.0768,-0.59247 0.11503,-0.75188 0.0382,-0.15941 0.0825,-0.42403 0.0983,-0.58805 0.0478,-0.49591 0.0738,-0.53773 0.37689,-0.6066 0.10717,-0.0244 0.28307,-0.0802 0.39088,-0.12406 0.10781,-0.0439 0.26532,-0.0887 0.35003,-0.0996 0.0847,-0.0109 0.23592,-0.0553 0.33603,-0.0988 0.1001,-0.0434 0.2949,-0.1001 0.43288,-0.12592 0.13799,-0.0258 0.31171,-0.0787 0.38606,-0.11762 0.0754,-0.0394 0.22776,-0.084 0.34455,-0.10084 l 0.20937,-0.0302 0.1691,0.18065 c 0.093,0.0994 0.21674,0.23105 0.27495,0.29265 0.15553,0.1646 0.92512,1.04307 1.04536,1.19325 0.0569,0.071 0.17015,0.20019 0.25171,0.28701 0.0816,0.0868 0.19869,0.21677 0.2603,0.28881 0.11817,0.13819 0.26256,0.29888 0.44803,0.49862 0.0616,0.0663 0.16242,0.18011 0.22402,0.25281 0.27537,0.32498 0.44841,0.484 0.56005,0.51467 0.0716,0.0197 0.4718,0.0308 1.10987,0.0309 l 0.99787,1.1e-4 0.15023,-0.12537 c 0.0826,-0.069 0.21323,-0.20236 0.29024,-0.29645 0.1937,-0.23668 0.78529,-0.91589 1.04484,-1.19959 0.1184,-0.12942 0.25665,-0.28063 0.30723,-0.33603 0.1875,-0.20539 0.75162,-0.86006 0.82273,-0.9548 0.0405,-0.0539 0.15363,-0.1825 0.25149,-0.28577 0.0979,-0.10327 0.19853,-0.21668 0.2237,-0.25202 0.0691,-0.0969 0.36421,-0.0881 0.61228,0.0182 0.10011,0.0429 0.28282,0.0996 0.40603,0.12592 0.12321,0.0263 0.31046,0.0825 0.41611,0.12488 0.10565,0.0423 0.29467,0.0963 0.42004,0.11998 0.12537,0.0236 0.28683,0.0728 0.3588,0.10927 0.072,0.0365 0.22114,0.0812 0.33149,0.0994 0.11036,0.0182 0.2252,0.0532 0.2552,0.0776 0.0395,0.0322 0.0693,0.12573 0.10787,0.33852 0.0293,0.16171 0.0726,0.36963 0.0961,0.46204 0.0236,0.0924 0.0631,0.37593 0.088,0.63005 0.0248,0.25412 0.0753,0.58805 0.11213,0.74206 0.0368,0.15401 0.0864,0.48164 0.11016,0.72806 0.0238,0.24642 0.074,0.58035 0.11167,0.74206 0.0377,0.16172 0.0822,0.4313 0.0989,0.59908 0.0397,0.39718 0.0955,0.5001 0.33575,0.61895 0.0539,0.0267 0.12951,0.0779 0.16801,0.1138 0.0385,0.0359 0.11679,0.0849 0.17398,0.10875 0.0572,0.0239 0.14539,0.0796 0.19601,0.12372 0.0506,0.0442 0.12123,0.0894 0.1569,0.10054 0.0357,0.0111 0.10668,0.057 0.15781,0.10187 0.0511,0.0449 0.13742,0.1002 0.19175,0.1229 0.0543,0.0227 0.14048,0.0794 0.19146,0.12592 0.051,0.0466 0.10703,0.0847 0.12458,0.0847 0.0176,0 0.0795,0.0378 0.13762,0.084 0.12526,0.0995 0.21057,0.10505 0.40987,0.0265 0.0802,-0.0316 0.24769,-0.0767 0.37207,-0.10016 0.12438,-0.0235 0.31436,-0.0775 0.42216,-0.12 0.10781,-0.0425 0.28541,-0.0918 0.39465,-0.1094 0.10924,-0.0176 0.26765,-0.0636 0.35199,-0.10225 0.0843,-0.0386 0.25368,-0.0877 0.3763,-0.10914 0.12261,-0.0214 0.30679,-0.0725 0.40927,-0.11346 0.10249,-0.041 0.2911,-0.0942 0.41915,-0.11817 0.12806,-0.024 0.29688,-0.0738 0.37517,-0.11064 0.0783,-0.0368 0.25377,-0.0864 0.38996,-0.11018 0.13619,-0.0237 0.30526,-0.0721 0.3757,-0.10745 0.3363,-0.16874 0.3972,-0.14403 0.77214,0.31334 0.0308,0.0376 0.10216,0.12022 0.15858,0.18365 0.0564,0.0634 0.16983,0.1919 0.25202,0.2855 0.0822,0.0936 0.18377,0.207 0.22571,0.25202 0.0709,0.0761 0.30632,0.35013 0.6588,0.76688 0.12005,0.14195 0.14701,0.193 0.14701,0.27836 0,0.14133 -0.0739,0.38061 -0.15566,0.50419 -0.0369,0.0557 -0.0854,0.16225 -0.1078,0.23668 -0.0224,0.0744 -0.0723,0.18308 -0.11094,0.24144 -0.0386,0.0584 -0.0902,0.17481 -0.11461,0.25877 -0.0244,0.084 -0.0753,0.19454 -0.11304,0.24573 -0.0378,0.0512 -0.0875,0.15719 -0.11047,0.23555 -0.023,0.0784 -0.0725,0.18727 -0.10998,0.24202 -0.0375,0.0547 -0.087,0.16286 -0.10996,0.24027 -0.023,0.0774 -0.08,0.20903 -0.1267,0.2925 -0.0467,0.0835 -0.0935,0.19865 -0.1039,0.25596 -0.0104,0.0573 -0.055,0.16105 -0.0991,0.23054 -0.0441,0.0695 -0.0997,0.19382 -0.12372,0.27629 -0.024,0.0825 -0.0745,0.19185 -0.11225,0.24304 -0.0378,0.0512 -0.0876,0.15719 -0.11076,0.23555 -0.0231,0.0784 -0.0801,0.19919 -0.12656,0.26849 -0.11785,0.17581 -0.11828,0.36208 -10e-4,0.53483 0.0459,0.0678 0.10359,0.19146 0.12813,0.27485 0.0245,0.0834 0.0756,0.1968 0.11338,0.25202 0.0378,0.0552 0.0876,0.16451 0.11056,0.24288 0.023,0.0784 0.0727,0.18436 0.11047,0.23555 0.0378,0.0512 0.0881,0.15983 0.1118,0.24142 0.0237,0.0816 0.083,0.21501 0.13169,0.29649 0.0487,0.0815 0.10362,0.17363 0.12202,0.20478 0.0547,0.0925 0.29836,0.20635 0.53954,0.2521 0.12405,0.0235 0.29317,0.0738 0.37583,0.1116 0.0827,0.0378 0.25578,0.0888 0.38469,0.11327 0.1289,0.0245 0.29297,0.0742 0.3646,0.11045 0.0716,0.0363 0.23308,0.0855 0.35878,0.10935 0.12569,0.0238 0.28951,0.0743 0.36403,0.11201 0.0745,0.0378 0.24165,0.0888 0.37139,0.1134 0.12975,0.0246 0.29314,0.0747 0.36306,0.11122 0.0699,0.0366 0.23884,0.0874 0.37535,0.11298 0.13649,0.0256 0.30679,0.0762 0.37842,0.11251 0.0716,0.0363 0.17997,0.0745 0.24072,0.085 0.28958,0.0497 0.31689,0.0644 0.39145,0.21156 0.0888,0.17525 0.11587,0.31805 0.16798,0.88626 0.0229,0.24977 0.0723,0.5963 0.10985,0.77007 0.0779,0.36086 0.1418,0.91219 0.11711,1.01052 -0.0269,0.10724 -0.12603,0.21259 -0.26742,0.28424 -0.0726,0.0368 -0.14927,0.0877 -0.17038,0.11313 -0.0211,0.0254 -0.0871,0.0711 -0.14676,0.10153 -0.0596,0.0304 -0.16539,0.0988 -0.23504,0.15197 -0.0697,0.0532 -0.14455,0.0967 -0.16644,0.0967 -0.0219,0 -0.0865,0.0441 -0.14369,0.098 -0.0571,0.0539 -0.11923,0.098 -0.13793,0.098 -0.0187,0 -0.091,0.0435 -0.16067,0.0967 -0.0696,0.0532 -0.17541,0.12155 -0.23504,0.15196 -0.0596,0.0304 -0.1256,0.0761 -0.14665,0.1014 -0.021,0.0254 -0.087,0.071 -0.14665,0.1014 -0.0596,0.0304 -0.1654,0.0988 -0.23505,0.15196 -0.0696,0.0532 -0.14237,0.0967 -0.16161,0.0967 -0.0192,0 -0.0655,0.0332 -0.10286,0.0738 -0.0374,0.0406 -0.12088,0.0976 -0.18566,0.12677 -0.0648,0.0291 -0.15297,0.0824 -0.19601,0.11838 -0.043,0.036 -0.1295,0.0914 -0.19213,0.1232 -0.0626,0.0318 -0.13115,0.0786 -0.15226,0.10402 -0.0211,0.0254 -0.0959,0.0754 -0.16614,0.11103 -0.0703,0.0356 -0.15019,0.0896 -0.1776,0.11995 -0.0274,0.0303 -0.10088,0.0782 -0.16328,0.1063 -0.0895,0.0404 -0.12993,0.084 -0.19163,0.2069 -0.0829,0.16506 -0.11797,0.36496 -0.1699,0.96781 -0.0159,0.18481 -0.0617,0.4735 -0.10169,0.64152 -0.10287,0.43197 -0.10203,0.56847 0.004,0.69513 0.0462,0.0551 0.14701,0.17812 0.22402,0.27349 0.15367,0.1903 0.3299,0.40089 0.48039,0.57404 0.0535,0.0616 0.14377,0.16554 0.20052,0.23096 0.0567,0.0654 0.15356,0.17446 0.21517,0.24231 0.0616,0.0679 0.17501,0.20184 0.25202,0.29776 0.22471,0.27988 0.53648,0.64853 0.85175,1.00712 0.39579,0.45019 0.55857,0.64126 0.61534,0.72231 0.0743,0.10609 0.0831,0.24164 0.0232,0.35875 -0.0228,0.0446 -0.0499,0.12063 -0.0604,0.16902 -0.0104,0.0484 -0.0556,0.14584 -0.10046,0.21654 -0.0448,0.0707 -0.10113,0.19603 -0.12512,0.27851 -0.024,0.0825 -0.0745,0.19184 -0.11226,0.24303 -0.0378,0.0512 -0.0886,0.16177 -0.11304,0.24574 -0.0244,0.084 -0.0748,0.19866 -0.11203,0.25488 -0.0372,0.0562 -0.086,0.16313 -0.10838,0.23756 -0.0224,0.0744 -0.0711,0.18136 -0.10828,0.23762 -0.0372,0.0563 -0.0835,0.1527 -0.10306,0.2143 -0.0505,0.15935 -0.10076,0.22974 -0.20453,0.28644 -0.0841,0.046 -0.25749,0.0506 -2.3675,0.0636 l -2.27676,0.014 -0.16709,0.18202 c -0.0919,0.10011 -0.22036,0.24195 -0.28546,0.31521 -0.25521,0.2872 -0.31814,0.3585 -0.41873,0.47452 -0.0574,0.0662 -0.14833,0.17075 -0.20207,0.23235 -0.29338,0.33633 -0.38277,0.45077 -0.39731,0.5087 -0.0223,0.0888 0.067,1.10309 0.11802,1.34093 0.0851,0.39684 0.0978,0.48485 0.13746,0.95061 0.0223,0.26182 0.0717,0.62908 0.10997,0.81613 0.0659,0.32269 0.15626,1.14312 0.15626,1.41934 0,0.16708 -0.0442,0.25906 -0.14453,0.30061 -0.0447,0.0185 -0.12719,0.0702 -0.18334,0.11479 -0.0562,0.0446 -0.15341,0.1041 -0.21614,0.13218 -0.0627,0.0281 -0.13899,0.0791 -0.16948,0.11343 -0.0305,0.0343 -0.0945,0.0787 -0.14234,0.0987 -0.0478,0.02 -0.14668,0.0819 -0.21973,0.13771 -0.073,0.0558 -0.15088,0.10138 -0.17294,0.10138 -0.0221,0 -0.0808,0.0389 -0.13055,0.0864 -0.0497,0.0475 -0.13296,0.10419 -0.18495,0.12592 -0.052,0.0217 -0.13637,0.0762 -0.1875,0.12112 -0.0511,0.0449 -0.12215,0.0907 -0.15781,0.10181 -0.0357,0.0111 -0.11112,0.0617 -0.16768,0.11244 -0.0694,0.0622 -0.14349,0.0983 -0.22782,0.11099 -0.13401,0.0201 -0.19939,-0.003 -0.33778,-0.11786 -0.0442,-0.0368 -0.12612,-0.086 -0.18202,-0.10933 -0.0559,-0.0233 -0.13313,-0.0726 -0.17163,-0.10949 -0.0385,-0.0369 -0.11574,-0.0861 -0.17164,-0.10949 -0.0559,-0.0233 -0.1378,-0.0726 -0.18201,-0.10955 -0.0442,-0.0369 -0.12449,-0.0895 -0.1784,-0.11699 -0.0539,-0.0274 -0.13418,-0.0801 -0.17839,-0.11698 -0.0442,-0.0369 -0.12441,-0.0855 -0.17821,-0.10798 -0.0538,-0.0225 -0.13967,-0.0776 -0.1908,-0.1225 -0.0511,-0.0449 -0.12215,-0.0908 -0.15782,-0.10194 -0.0357,-0.0112 -0.10129,-0.0508 -0.14584,-0.088 -0.0445,-0.0372 -0.13985,-0.0975 -0.21178,-0.134 -0.0719,-0.0364 -0.14871,-0.0879 -0.17062,-0.11428 -0.0219,-0.0264 -0.0967,-0.0723 -0.16626,-0.102 -0.0695,-0.0297 -0.15791,-0.084 -0.19641,-0.12069 -0.0385,-0.0367 -0.11511,-0.0856 -0.17024,-0.1086 -0.0551,-0.023 -0.11735,-0.0625 -0.13826,-0.0877 -0.0209,-0.0252 -0.10181,-0.078 -0.17978,-0.11739 -0.078,-0.0394 -0.17795,-0.10185 -0.22216,-0.13886 -0.0442,-0.037 -0.1241,-0.0856 -0.17752,-0.10787 -0.0534,-0.0223 -0.13418,-0.0718 -0.17946,-0.10986 -0.13011,-0.10949 -0.24642,-0.11754 -0.43606,-0.0302 -0.0895,0.0412 -0.29755,0.10492 -0.46241,0.14159 -0.16486,0.0367 -0.35075,0.0927 -0.41309,0.12451 -0.0623,0.0318 -0.21727,0.0775 -0.3443,0.10162 -0.12703,0.0241 -0.33469,0.0888 -0.46147,0.14388 -0.22192,0.0964 -0.23462,0.10697 -0.34077,0.28464 -0.0606,0.1015 -0.12291,0.23198 -0.13838,0.28996 -0.0155,0.058 -0.0603,0.14364 -0.0996,0.19035 -0.0393,0.0467 -0.0908,0.15005 -0.11444,0.22966 -0.0236,0.0796 -0.0736,0.191 -0.111,0.24752 -0.0374,0.0565 -0.088,0.17146 -0.11238,0.25543 -0.0244,0.084 -0.0759,0.19532 -0.11433,0.24746 -0.0385,0.0521 -0.0831,0.14554 -0.0992,0.20755 -0.0161,0.062 -0.0709,0.18205 -0.12176,0.26676 -0.0509,0.0847 -0.1087,0.20441 -0.12844,0.26602 -0.0198,0.0616 -0.0644,0.14981 -0.0992,0.19602 -0.0348,0.0462 -0.0836,0.15442 -0.10844,0.24048 -0.0248,0.0861 -0.0761,0.19837 -0.11383,0.24956 -0.0378,0.0512 -0.0888,0.16241 -0.11346,0.24716 -0.0246,0.0848 -0.0757,0.19927 -0.11354,0.25449 -0.0378,0.0552 -0.0875,0.1634 -0.11047,0.24041 -0.025,0.084 -0.0907,0.19604 -0.16417,0.28002 l -0.12245,0.14001 -1.34009,0.006 c -0.77475,0.003 -1.36698,-0.005 -1.40382,-0.0204 z m 2.56993,-12.5718 c 0.10011,-0.0167 0.28913,-0.061 0.42004,-0.0986 0.13091,-0.0376 0.32622,-0.082 0.43403,-0.0987 0.10781,-0.0167 0.2473,-0.0604 0.30997,-0.0971 0.0627,-0.0367 0.19874,-0.0863 0.30238,-0.11036 0.10364,-0.024 0.23507,-0.0756 0.29208,-0.11466 0.057,-0.039 0.16996,-0.0904 0.25099,-0.11418 0.081,-0.0238 0.18185,-0.0716 0.22402,-0.10629 0.0422,-0.0347 0.13255,-0.085 0.20082,-0.11175 0.0683,-0.0268 0.16116,-0.0798 0.2064,-0.1179 0.0452,-0.0381 0.12799,-0.0883 0.18389,-0.11167 0.0559,-0.0234 0.13313,-0.0719 0.17163,-0.10778 0.0385,-0.0359 0.10885,-0.0849 0.15632,-0.10881 0.0913,-0.046 0.25364,-0.16915 0.45617,-0.34601 0.15568,-0.13595 0.8499,-0.83074 0.99765,-0.99846 0.21865,-0.24821 0.53041,-0.67742 0.55891,-0.76945 0.011,-0.0357 0.0559,-0.1056 0.0996,-0.15542 0.0437,-0.0498 0.10151,-0.14664 0.12839,-0.21518 0.0269,-0.0685 0.077,-0.15886 0.11149,-0.20074 0.0344,-0.0419 0.0842,-0.14268 0.11067,-0.22402 0.0264,-0.0813 0.0773,-0.18711 0.11305,-0.23505 0.0357,-0.0479 0.085,-0.17367 0.10956,-0.2794 0.0245,-0.10572 0.0767,-0.24706 0.116,-0.31408 0.0431,-0.0736 0.0863,-0.2125 0.10897,-0.35066 0.0207,-0.12584 0.0686,-0.3107 0.10658,-0.41081 0.0435,-0.11461 0.0804,-0.29608 0.0998,-0.49004 0.0525,-0.52474 0.0874,-1.18928 0.0726,-1.38306 -0.008,-0.10179 -0.0271,-0.37409 -0.0431,-0.6051 -0.0366,-0.53105 -0.0677,-0.72957 -0.13983,-0.89255 -0.0316,-0.0714 -0.0748,-0.23743 -0.0961,-0.36896 -0.0241,-0.14912 -0.0657,-0.28522 -0.11042,-0.36151 -0.0394,-0.0673 -0.0854,-0.18959 -0.10218,-0.27176 -0.0168,-0.0822 -0.067,-0.20976 -0.11177,-0.28354 -0.0447,-0.0738 -0.10099,-0.20188 -0.12506,-0.28467 -0.0241,-0.0828 -0.0642,-0.16735 -0.0891,-0.18789 -0.0249,-0.0205 -0.087,-0.12871 -0.138,-0.24036 -0.051,-0.11166 -0.10412,-0.20302 -0.1181,-0.20302 -0.014,0 -0.0586,-0.0662 -0.0991,-0.14701 -0.0697,-0.13907 -0.16688,-0.27835 -0.3447,-0.49388 -0.043,-0.0522 -0.0917,-0.11903 -0.10809,-0.14859 -0.0939,-0.16918 -1.07136,-1.14567 -1.24153,-1.24029 -0.0281,-0.0156 -0.0938,-0.0637 -0.14592,-0.10691 -0.18214,-0.15077 -0.40362,-0.30324 -0.50049,-0.34456 -0.0537,-0.0229 -0.12313,-0.0656 -0.1543,-0.0949 -0.0312,-0.0293 -0.13214,-0.0864 -0.2244,-0.12701 -0.0923,-0.0406 -0.19293,-0.0967 -0.22373,-0.12482 -0.0308,-0.0281 -0.12478,-0.0712 -0.20882,-0.0959 -0.0841,-0.0247 -0.19746,-0.0757 -0.25203,-0.11349 -0.0546,-0.0378 -0.18653,-0.0889 -0.29328,-0.11358 -0.10674,-0.0247 -0.24535,-0.0748 -0.30802,-0.11136 -0.0661,-0.0385 -0.21987,-0.0847 -0.36597,-0.10987 -0.13861,-0.0239 -0.3242,-0.0688 -0.41241,-0.0998 -0.25099,-0.0882 -0.48425,-0.11187 -1.28173,-0.12992 -0.918,-0.0208 -1.45845,0.0139 -1.79215,0.11486 -0.13091,0.0396 -0.35143,0.0914 -0.49004,0.11509 -0.15029,0.0257 -0.29918,0.0706 -0.36884,0.11125 -0.0643,0.0375 -0.20286,0.0879 -0.30802,0.11206 -0.10517,0.0241 -0.23724,0.0754 -0.2935,0.11404 -0.0563,0.0386 -0.16336,0.0885 -0.23802,0.11083 -0.0746,0.0224 -0.18614,0.0764 -0.24774,0.12011 -0.0616,0.0437 -0.15826,0.0945 -0.21478,0.11288 -0.0565,0.0184 -0.11877,0.0527 -0.13834,0.0763 -0.0196,0.0236 -0.10562,0.0784 -0.19125,0.12177 -0.0856,0.0434 -0.18624,0.11168 -0.22358,0.15173 -0.0373,0.04 -0.0823,0.0728 -0.1,0.0728 -0.0176,0 -0.0816,0.0416 -0.14213,0.0923 -0.0605,0.0508 -0.14981,0.11694 -0.19842,0.14702 -0.25949,0.16055 -1.18684,1.09017 -1.29759,1.30078 -0.0203,0.0385 -0.0853,0.12533 -0.14449,0.19296 -0.0592,0.0676 -0.10768,0.13788 -0.10768,0.15613 0,0.0182 -0.0305,0.0618 -0.0678,0.0969 -0.0373,0.035 -0.10494,0.14142 -0.1503,0.23639 -0.0454,0.095 -0.10242,0.18922 -0.12677,0.20944 -0.0243,0.0202 -0.0595,0.083 -0.0781,0.13951 -0.0186,0.0565 -0.076,0.16404 -0.12744,0.23893 -0.0515,0.0749 -0.0936,0.15902 -0.0936,0.18698 0,0.028 -0.0444,0.13592 -0.0986,0.23993 -0.0542,0.10401 -0.11773,0.27171 -0.14114,0.37266 -0.0234,0.10096 -0.0688,0.22785 -0.10075,0.28197 -0.032,0.0541 -0.0816,0.22833 -0.11033,0.38712 -0.0287,0.15879 -0.0844,0.40451 -0.12377,0.54604 -0.15118,0.54328 -0.15308,2.08052 -0.003,2.65154 0.0384,0.14631 0.0905,0.38573 0.11586,0.53205 0.0253,0.14631 0.0816,0.34792 0.12501,0.44803 0.0434,0.10011 0.0921,0.24502 0.10824,0.32203 0.0161,0.077 0.0742,0.22598 0.12901,0.33106 0.0548,0.10508 0.0997,0.21361 0.0997,0.24117 0,0.0276 0.0371,0.0967 0.0823,0.15373 0.0453,0.057 0.10268,0.16486 0.12755,0.23971 0.0249,0.0749 0.0648,0.1524 0.0888,0.1723 0.024,0.0199 0.0801,0.11156 0.12475,0.20369 0.0446,0.0921 0.0943,0.17561 0.11033,0.18554 0.0286,0.0177 0.11745,0.14003 0.32447,0.44696 0.0571,0.0847 0.13627,0.18725 0.17586,0.22787 0.0396,0.0406 0.12869,0.13785 0.198,0.21605 0.30695,0.34637 0.79489,0.81017 0.95846,0.91104 0.0504,0.0311 0.14115,0.0981 0.20167,0.14884 0.0605,0.0508 0.12449,0.0923 0.14213,0.0923 0.0177,0 0.0626,0.033 0.1,0.0734 0.0373,0.0404 0.12183,0.0968 0.18777,0.12538 0.0659,0.0286 0.16673,0.0885 0.22401,0.13318 0.0573,0.0446 0.14713,0.0954 0.19966,0.11275 0.0525,0.0174 0.13444,0.0611 0.18202,0.0972 0.0476,0.0361 0.14985,0.0865 0.22727,0.11208 0.0774,0.0256 0.18606,0.0772 0.2414,0.11486 0.0553,0.0376 0.18515,0.088 0.28846,0.11193 0.1033,0.024 0.24077,0.0746 0.30547,0.11251 0.0752,0.0441 0.21328,0.0842 0.38284,0.11135 0.14585,0.0233 0.3723,0.0751 0.50321,0.11511 0.14677,0.0448 0.35611,0.0818 0.54605,0.0965 0.39987,0.0309 1.87907,0.0116 2.11417,-0.0275 z"
       style="fill:#dcdcdc;fill-opacity:1;stroke-width:1.2;stroke-miterlimit:4;stroke-dasharray:none;stroke:#13110b;stroke-opacity:0.46666667000000001"
       inkscape:export-xdpi="66.804352"
       inkscape:export-ydpi="66.804352"
       inkscape:export-filename="/Users/Laurent/Novelang/src/main-resources/style/mockup/Gears.png" />
  </g>
</svg>
