<?xml version="1.0" encoding="UTF-8" standalone="no"?>
<!-- Generator: Adobe Illustrator 12.0.0, SVG Export Plug-In . SVG Version: 6.00 Build 51448)  -->

<svg
   xmlns:dc="http://purl.org/dc/elements/1.1/"
   xmlns:cc="http://creativecommons.org/ns#"
   xmlns:rdf="http://www.w3.org/1999/02/22-rdf-syntax-ns#"
   xmlns:svg="http://www.w3.org/2000/svg"
   xmlns="http://www.w3.org/2000/svg"
   xmlns:sodipodi="http://sodipodi.sourceforge.net/DTD/sodipodi-0.dtd"
   xmlns:inkscape="http://www.inkscape.org/namespaces/inkscape"
   height="257.509"
   id="Layer_1"
   inkscape:version="0.47pre4 r22446"
   sodipodi:docname="puntine_architetto_franc_01.svg"
   sodipodi:version="0.32"
   style="overflow:visible;enable-background:new 0 0 260.888 257.509;"
   version="1.0"
   viewBox="0 0 260.888 257.509"
   width="260.888"
   xml:space="preserve"
   inkscape:export-filename="/Users/Laurent/Novelang/src/main-resources/style/mockup/pin/pin.png"
   inkscape:export-xdpi="17.821892"
   inkscape:export-ydpi="17.821892"><metadata
   id="metadata3015"><rdf:RDF><cc:Work
       rdf:about=""><dc:title></dc:title><dc:description /><dc:subject><rdf:Bag><rdf:li>unsorted</rdf:li></rdf:Bag></dc:subject><dc:publisher><cc:Agent
           rdf:about="http://www.openclipart.org"><dc:title>Architetto Francesco Rollandin</dc:title></cc:Agent></dc:publisher><dc:creator><cc:Agent><dc:title>Architetto Francesco Rollandin</dc:title></cc:Agent></dc:creator><dc:rights><cc:Agent><dc:title>Architetto Francesco Rollandin</dc:title></cc:Agent></dc:rights><dc:date /><dc:format>image/svg+xml</dc:format><dc:type
         rdf:resource="http://purl.org/dc/dcmitype/StillImage" /><cc:license
         rdf:resource="http://web.resource.org/cc/PublicDomain" /><dc:language>en</dc:language></cc:Work><cc:License
       rdf:about="http://web.resource.org/cc/PublicDomain"><cc:permits
         rdf:resource="http://web.resource.org/cc/Reproduction" /><cc:permits
         rdf:resource="http://web.resource.org/cc/Distribution" /><cc:permits
         rdf:resource="http://web.resource.org/cc/DerivativeWorks" /></cc:License></rdf:RDF></metadata>
<defs
   id="defs134"><inkscape:perspective
     sodipodi:type="inkscape:persp3d"
     inkscape:vp_x="0 : 128.7545 : 1"
     inkscape:vp_y="0 : 1000 : 0"
     inkscape:vp_z="260.888 : 128.7545 : 1"
     inkscape:persp3d-origin="130.444 : 85.836334 : 1"
     id="perspective3086" /></defs>
<sodipodi:namedview
   bordercolor="#666666"
   borderopacity="1.0"
   id="base"
   inkscape:current-layer="Layer_1"
   inkscape:cx="119.72803"
   inkscape:cy="146.03598"
   inkscape:pageopacity="0.0"
   inkscape:pageshadow="2"
   inkscape:window-height="811"
   inkscape:window-width="1183"
   inkscape:window-x="132"
   inkscape:window-y="132"
   inkscape:zoom="0.78814318"
   pagecolor="#ffffff"
   showgrid="false"
   inkscape:window-maximized="0" />











































<path
   d="m 133.81124,98.344146 c 8.712,7.844004 26.762,27.996004 16.025,40.537004 -10.588,12.367 -33.756,-3.006 -42.423,-10.605 -8.510005,-7.461 -27.456005,-29.823004 -14.942005,-41.087004 11.279005,-10.154 33.428005,2.759 41.340005,11.155"
   id="path81"
   style="fill:#7dff00"
   inkscape:export-xdpi="11.881261"
   inkscape:export-ydpi="11.881261" />

<path
   d="m 133.81124,98.344146 c 9.812,8.834004 24.629,25.794004 16.453,39.804004 -8.497,14.561 -34.399,-3.034 -42.336,-9.455 -9.258005,-7.49 -26.827005,-28.779004 -16.068005,-40.954004 10.959005,-12.401 33.080005,3.234 42.186005,10.605"
   id="path83"
   style="fill:none;stroke:#000000;stroke-width:0.80000001;stroke-linecap:square;stroke-miterlimit:10"
   inkscape:export-filename="/Users/Laurent/Novelang/src/main-resources/style/mockup/pin/path81.png"
   inkscape:export-xdpi="11.881261"
   inkscape:export-ydpi="11.881261" />

<path
   d="m 103.40624,124.50515 c -5.021005,8.353 -11.988005,16.017 -17.974005,23.716 -2.261,2.907 -18.604,20.437 -17.142,23.185 0.064,0.121 0.198,0.161 0.389,0.135 13.769,-13.777 25.615,-29.477 39.330005,-43.308 -1.491,-1.366 -3.015,-2.681 -4.603,-3.728 z"
   id="path85"
   style="fill:#d0d0d0"
   inkscape:export-filename="/Users/Laurent/Novelang/src/main-resources/style/mockup/pin/path81.png"
   inkscape:export-xdpi="11.881261"
   inkscape:export-ydpi="11.881261" />

<path
   d="m 111.89324,131.81115 c -1.283,-1.136 -2.57,-2.377 -3.883,-3.578 -13.715005,13.831 -25.562005,29.53 -39.330005,43.308 2.781,-0.391 18.093,-15.54 20.078,-17.445 7.722,-7.413 15.571005,-14.72 23.135005,-22.285 z"
   id="path87"
   style="fill:#8c8c8c"
   inkscape:export-filename="/Users/Laurent/Novelang/src/main-resources/style/mockup/pin/path81.png"
   inkscape:export-xdpi="11.881261"
   inkscape:export-ydpi="11.881261" />

<path
   d="m 103.40624,124.50515 c -5.021005,8.353 -11.988005,16.017 -17.974005,23.716 -2.261,2.907 -18.604,20.437 -17.142,23.185 1.005,1.888 18.346,-15.274 20.467,-17.311 7.722,-7.412 15.571005,-14.72 23.135005,-22.284 -2.75,-2.436 -5.499,-4.87 -8.249,-7.306"
   id="path89"
   style="fill:none;stroke:#000000;stroke-width:0.80000001;stroke-linecap:square;stroke-miterlimit:10"
   inkscape:export-filename="/Users/Laurent/Novelang/src/main-resources/style/mockup/pin/path81.png"
   inkscape:export-xdpi="11.881261"
   inkscape:export-ydpi="11.881261" />

<path
   d="m 101.99324,85.853146 c -16.835005,3.048 -8.870005,20.388004 -2.592005,29.461004 -6.015,-12.373 -8.46,-20.289004 2.592005,-29.461004"
   id="path91"
   style="fill:#ffffff"
   inkscape:export-filename="/Users/Laurent/Novelang/src/main-resources/style/mockup/pin/path81.png"
   inkscape:export-xdpi="11.881261"
   inkscape:export-ydpi="11.881261" />

<path
   d="m 161.62024,92.452146 c -11.041,-2.697 -20.587,-12.354 -25.688,-22.154 -7.105,8.188 -14.212,16.375 -21.317,24.562 -4.882,5.625004 2.795,13.965004 6.939,17.625004 3.916,3.459 13.478,10.188 18.287,4.765 7.102,-8.01 15.96,-15.926 21.779,-24.798004"
   id="path93"
   style="fill:#ffb10f"
   inkscape:export-filename="/Users/Laurent/Novelang/src/main-resources/style/mockup/pin/path81.png"
   inkscape:export-xdpi="11.881261"
   inkscape:export-ydpi="11.881261" />

<path
   d="m 161.62024,92.452146 c -11.041,-2.697 -20.587,-12.354 -25.688,-22.154 -7.105,8.188 -14.212,16.375 -21.317,24.562 -4.882,5.625004 2.795,13.965004 6.939,17.625004 3.916,3.459 13.478,10.188 18.287,4.765 7.26,-8.188 14.52,-16.374 21.779,-24.562004"
   id="path95"
   style="fill:#00ff00;stroke:#000000;stroke-width:0.80000001;stroke-linecap:square;stroke-miterlimit:10"
   inkscape:export-filename="/Users/Laurent/Novelang/src/main-resources/style/mockup/pin/path81.png"
   inkscape:export-xdpi="11.881261"
   inkscape:export-ydpi="11.881261" />

<path
   d="m 115.89924,100.23015 c 4.393,2.438 25.909,-24.154004 23.331,-26.396004 -2.864,-2.493 -25.935,22.379 -23.331,26.396004"
   id="path97"
   style="fill:#ffffff"
   inkscape:export-filename="/Users/Laurent/Novelang/src/main-resources/style/mockup/pin/path81.png"
   inkscape:export-xdpi="11.881261"
   inkscape:export-ydpi="11.881261" />

<path
   d="m 176.70524,87.268146 c -12.021,12.595 -49.213,-20.178 -37.71,-33.232 -9.646,10.334 -1.565,20.827 6.863,29.254 4.145,4.144 9.873,7.441 15.439,9.153 7.183,2.21 10.655,-0.085 15.408,-5.175"
   id="path99"
   style="fill:#00a33d"
   inkscape:export-filename="/Users/Laurent/Novelang/src/main-resources/style/mockup/pin/path81.png"
   inkscape:export-xdpi="11.881261"
   inkscape:export-ydpi="11.881261" />

<path
   d="m 176.70524,87.268146 c -12.021,12.595 -49.213,-20.178 -37.71,-33.232 -9.646,10.334 -1.565,20.827 6.863,29.254 4.145,4.144 9.873,7.441 15.439,9.153 7.183,2.21 10.655,-0.085 15.408,-5.175"
   id="path101"
   style="fill:none;stroke:#000000;stroke-width:0.80000001;stroke-linecap:square;stroke-miterlimit:10"
   inkscape:export-filename="/Users/Laurent/Novelang/src/main-resources/style/mockup/pin/path81.png"
   inkscape:export-xdpi="11.881261"
   inkscape:export-ydpi="11.881261" />

<path
   d="m 149.36424,79.961146 c 5.776,4.646 20.373,15.316 27.341,7.307 6.876,-7.905 -5.02,-21.062 -10.606,-25.925 -5.841,-5.084 -21.126,-15.676 -27.692,-6.482 -5.841,8.176 6.562,20.445 10.957,25.1"
   id="path103"
   style="fill:#7dff00"
   inkscape:export-filename="/Users/Laurent/Novelang/src/main-resources/style/mockup/pin/path81.png"
   inkscape:export-xdpi="11.881261"
   inkscape:export-ydpi="11.881261" />

<path
   d="m 149.36424,79.961146 c 5.776,4.646 20.373,15.316 27.341,7.307 6.876,-7.905 -5.02,-21.062 -10.606,-25.925 -5.574,-4.853 -20.22,-15.223 -27.104,-7.307 -6.519,7.496 4.677,21.572 10.606,25.925"
   id="path105"
   style="fill:none;stroke:#000000;stroke-width:0.80000001;stroke-linecap:square;stroke-miterlimit:10"
   inkscape:export-filename="/Users/Laurent/Novelang/src/main-resources/style/mockup/pin/path81.png"
   inkscape:export-xdpi="11.881261"
   inkscape:export-ydpi="11.881261" />




























  
</svg>