<?xml version="1.0" encoding="UTF-8"?>
<!--
  ~ Copyright (C) 2011 Laurent Caillette
  ~
  ~ This program is free software; you can redistribute it and/or
  ~ modify it under the terms of the GNU Lesser General Public
  ~ License as published by the Free Software Foundation, either
  ~ version 3 of the License, or (at your option) any later version.
  ~
  ~ This program is distributed in the hope that it will be useful,
  ~ but WITHOUT ANY WARRANTY; without even the implied warranty of
  ~ MERCHANTABILITY or FITNESS FOR A PARTICULAR PURPOSE. See the
  ~ GNU General Public License for more details.
  ~
  ~ You should have received a copy of the GNU General Public License
  ~ along with this program.  If not, see <http://www.gnu.org/licenses/>.
  -->

<!DOCTYPE svg PUBLIC "-//W3C//DTD SVG 1.0//EN" "http://www.w3.org/TR/2001/REC-SVG-20010904/DTD/svg10.dtd">

<svg xmlns="http://www.w3.org/2000/svg" xmlns:xlink="http://www.w3.org/1999/xlink" style="fill-opacity:1; color-rendering:auto; color-interpolation:auto; stroke:black; text-rendering:auto; stroke-linecap:square; stroke-miterlimit:10; stroke-opacity:1; shape-rendering:auto; fill:black; stroke-dasharray:none; font-weight:normal; stroke-width:1; font-family:'Dialog'; font-style:normal; stroke-linejoin:miter; font-size:12; stroke-dashoffset:0; image-rendering:auto;" preserveAspectRatio="xMidYMid meet" zoomAndPan="magnify" version="1.0" contentScriptType="text/ecmascript" contentStyleType="text/css" width="500px" height="250px">
  <!--Generated by the Batik Graphics2D SVG Generator-->
  <defs id="genericDefs"/>
  <g>
    <defs id="defs1">
      <linearGradient x1="271.9717" gradientUnits="userSpaceOnUse" x2="271.9717" y1="200.6172" y2="30.4844" id="linearGradient1" spreadMethod="pad" xlink:type="simple" xlink:show="other" xlink:actuate="onLoad">
        <stop style="stop-opacity:1; stop-color:rgb(136,167,189);" offset="0%"/>
        <stop style="stop-opacity:1; stop-color:rgb(204,237,255);" offset="100%"/>
      </linearGradient>
      <clipPath clipPathUnits="userSpaceOnUse" id="clipPath1">
        <path d="M0 0 L500 0 L500 250 L0 250 L0 0 Z"/>
      </clipPath>
      <clipPath clipPathUnits="userSpaceOnUse" id="clipPath2">
        <path d="M133.6172 97.4844 L133.6172 597.4844 L-116.3828 597.4844 L-116.3828 97.4844 L133.6172 97.4844 Z"/>
      </clipPath>
      <clipPath clipPathUnits="userSpaceOnUse" id="clipPath3">
        <path d="M55.9434 30.4844 L55.9434 200.6172 L488 200.6172 L488 30.4844 Z"/>
      </clipPath>
    </defs>
    <g style="fill:white; text-rendering:optimizeLegibility; stroke:white;">
      <rect x="0" y="0" width="500" style="clip-path:url(#clipPath1); stroke:none;" height="250"/>
      <rect x="192.5312" y="1" width="114.9375" style="clip-path:url(#clipPath1); stroke:none;" height="20.4844"/>
    </g>
    <g style="stroke-linecap:round; fill:rgb(255,85,85); text-rendering:optimizeLegibility; font-family:'Tahoma'; stroke-linejoin:round; stroke:rgb(255,85,85); stroke-width:3;">
      <path d="M195.5312 11.2422 L209.5312 11.2422" style="fill:none; clip-path:url(#clipPath1);"/>
      <text x="213.5312" y="16.0059" style="fill:rgb(64,64,64); clip-path:url(#clipPath1); stroke:none;" xml:space="preserve">0.41.0</text>
    </g>
    <g style="fill:rgb(85,85,255); text-rendering:optimizeLegibility; font-family:'Tahoma'; stroke-linejoin:round; stroke-linecap:round; stroke:rgb(85,85,255);">
      <path d="M253 11.2422 L267 11.2422" style="fill:none; clip-path:url(#clipPath1);"/>
      <text x="271" y="16.0059" style="fill:rgb(64,64,64); clip-path:url(#clipPath1); stroke:none;" xml:space="preserve">0.38.1</text>
    </g>
    <g style="fill:url(#linearGradient1); text-rendering:optimizeLegibility; font-family:'Tahoma'; stroke-linejoin:round; stroke-linecap:round; stroke:url(#linearGradient1);">
      <rect x="55.9434" y="30.4844" width="432.0566" style="clip-path:url(#clipPath1); stroke:none;" height="170.1328"/>
    </g>
    <g style="fill:rgb(0,0,0); text-rendering:optimizeLegibility; fill-opacity:0; font-family:'Tahoma'; stroke-opacity:0; stroke:rgb(0,0,0);">
      <line x1="55.9434" x2="488" y1="204.6172" style="fill:none; clip-path:url(#clipPath1);" y2="204.6172"/>
    </g>
    <g style="fill:rgb(64,64,64); text-rendering:optimizeLegibility; font-family:'Tahoma'; stroke:rgb(64,64,64);">
      <text x="54.4823" xml:space="preserve" y="220.623" style="clip-path:url(#clipPath1); stroke:none;">0</text>
    </g>
    <g style="fill:gray; text-rendering:optimizeLegibility; font-family:'Tahoma'; stroke:gray;">
      <line x1="57.7577" x2="57.7577" y1="206.6172" style="fill:none; clip-path:url(#clipPath1);" y2="204.6172"/>
      <text x="91.7321" y="220.623" style="fill:rgb(64,64,64); clip-path:url(#clipPath1); stroke:none;" xml:space="preserve">2</text>
    </g>
    <g style="fill:gray; text-rendering:optimizeLegibility; font-family:'Tahoma'; stroke:gray;">
      <line x1="95.0075" x2="95.0075" y1="206.6172" style="fill:none; clip-path:url(#clipPath1);" y2="204.6172"/>
      <text x="128.982" y="220.623" style="fill:rgb(64,64,64); clip-path:url(#clipPath1); stroke:none;" xml:space="preserve">4</text>
    </g>
    <g style="fill:gray; text-rendering:optimizeLegibility; font-family:'Tahoma'; stroke:gray;">
      <line x1="132.2574" x2="132.2574" y1="206.6172" style="fill:none; clip-path:url(#clipPath1);" y2="204.6172"/>
      <text x="166.2319" y="220.623" style="fill:rgb(64,64,64); clip-path:url(#clipPath1); stroke:none;" xml:space="preserve">6</text>
    </g>
    <g style="fill:gray; text-rendering:optimizeLegibility; font-family:'Tahoma'; stroke:gray;">
      <line x1="169.5073" x2="169.5073" y1="206.6172" style="fill:none; clip-path:url(#clipPath1);" y2="204.6172"/>
      <text x="203.4817" y="220.623" style="fill:rgb(64,64,64); clip-path:url(#clipPath1); stroke:none;" xml:space="preserve">8</text>
    </g>
    <g style="fill:gray; text-rendering:optimizeLegibility; font-family:'Tahoma'; stroke:gray;">
      <line x1="206.7571" x2="206.7571" y1="206.6172" style="fill:none; clip-path:url(#clipPath1);" y2="204.6172"/>
      <text x="237.4562" y="220.623" style="fill:rgb(64,64,64); clip-path:url(#clipPath1); stroke:none;" xml:space="preserve">10</text>
    </g>
    <g style="fill:gray; text-rendering:optimizeLegibility; font-family:'Tahoma'; stroke:gray;">
      <line x1="244.007" x2="244.007" y1="206.6172" style="fill:none; clip-path:url(#clipPath1);" y2="204.6172"/>
      <text x="274.7061" y="220.623" style="fill:rgb(64,64,64); clip-path:url(#clipPath1); stroke:none;" xml:space="preserve">12</text>
    </g>
    <g style="fill:gray; text-rendering:optimizeLegibility; font-family:'Tahoma'; stroke:gray;">
      <line x1="281.2569" x2="281.2569" y1="206.6172" style="fill:none; clip-path:url(#clipPath1);" y2="204.6172"/>
      <text x="311.956" y="220.623" style="fill:rgb(64,64,64); clip-path:url(#clipPath1); stroke:none;" xml:space="preserve">14</text>
    </g>
    <g style="fill:gray; text-rendering:optimizeLegibility; font-family:'Tahoma'; stroke:gray;">
      <line x1="318.5067" x2="318.5067" y1="206.6172" style="fill:none; clip-path:url(#clipPath1);" y2="204.6172"/>
      <text x="349.2058" y="220.623" style="fill:rgb(64,64,64); clip-path:url(#clipPath1); stroke:none;" xml:space="preserve">16</text>
    </g>
    <g style="fill:gray; text-rendering:optimizeLegibility; font-family:'Tahoma'; stroke:gray;">
      <line x1="355.7566" x2="355.7566" y1="206.6172" style="fill:none; clip-path:url(#clipPath1);" y2="204.6172"/>
      <text x="386.4557" y="220.623" style="fill:rgb(64,64,64); clip-path:url(#clipPath1); stroke:none;" xml:space="preserve">18</text>
    </g>
    <g style="fill:gray; text-rendering:optimizeLegibility; font-family:'Tahoma'; stroke:gray;">
      <line x1="393.0065" x2="393.0065" y1="206.6172" style="fill:none; clip-path:url(#clipPath1);" y2="204.6172"/>
      <text x="423.7056" y="220.623" style="fill:rgb(64,64,64); clip-path:url(#clipPath1); stroke:none;" xml:space="preserve">20</text>
    </g>
    <g style="fill:gray; text-rendering:optimizeLegibility; font-family:'Tahoma'; stroke:gray;">
      <line x1="430.2563" x2="430.2563" y1="206.6172" style="fill:none; clip-path:url(#clipPath1);" y2="204.6172"/>
      <text x="460.9554" y="220.623" style="fill:rgb(64,64,64); clip-path:url(#clipPath1); stroke:none;" xml:space="preserve">22</text>
    </g>
    <g style="fill:gray; text-rendering:optimizeLegibility; font-family:'Tahoma'; stroke:gray;">
      <line x1="467.5062" x2="467.5062" y1="206.6172" style="fill:none; clip-path:url(#clipPath1);" y2="204.6172"/>
    </g>
    <g style="fill:rgb(64,64,64); text-rendering:optimizeLegibility; font-size:14; font-weight:bold; font-family:'Tahoma'; stroke:rgb(64,64,64);">
      <text x="193.0166" xml:space="preserve" y="240.1084" style="clip-path:url(#clipPath1); stroke:none;">Total source size (KiB)</text>
    </g>
    <g style="font-size:14; fill-opacity:0; fill:rgb(0,0,0); text-rendering:optimizeLegibility; font-family:'Tahoma'; stroke:rgb(0,0,0); font-weight:bold; stroke-opacity:0;">
      <line x1="51.9434" x2="51.9434" y1="30.4844" style="fill:none; clip-path:url(#clipPath1);" y2="200.6172"/>
    </g>
    <g style="font-family:sans-serif; font-size:10; text-rendering:optimizeLegibility;">
      <text x="30.1328" xml:space="preserve" y="204.3965" style="clip-path:url(#clipPath1); stroke:none;">0.0</text>
    </g>
    <g style="fill:gray; text-rendering:optimizeLegibility; font-size:10; font-family:sans-serif; stroke:gray;">
      <line x1="49.9434" x2="51.9434" y1="200.6172" style="fill:none; clip-path:url(#clipPath1);" y2="200.6172"/>
      <text x="30.1328" y="181.1961" style="fill:black; clip-path:url(#clipPath1); stroke:none;" xml:space="preserve">0.5</text>
    </g>
    <g style="fill:gray; text-rendering:optimizeLegibility; font-size:10; font-family:sans-serif; stroke:gray;">
      <line x1="49.9434" x2="51.9434" y1="177.4168" style="fill:none; clip-path:url(#clipPath1);" y2="177.4168"/>
      <text x="30.1328" y="157.9958" style="fill:black; clip-path:url(#clipPath1); stroke:none;" xml:space="preserve">1.0</text>
    </g>
    <g style="fill:gray; text-rendering:optimizeLegibility; font-size:10; font-family:sans-serif; stroke:gray;">
      <line x1="49.9434" x2="51.9434" y1="154.2165" style="fill:none; clip-path:url(#clipPath1);" y2="154.2165"/>
      <text x="30.1328" y="134.7954" style="fill:black; clip-path:url(#clipPath1); stroke:none;" xml:space="preserve">1.5</text>
    </g>
    <g style="fill:gray; text-rendering:optimizeLegibility; font-size:10; font-family:sans-serif; stroke:gray;">
      <line x1="49.9434" x2="51.9434" y1="131.0161" style="fill:none; clip-path:url(#clipPath1);" y2="131.0161"/>
      <text x="30.1328" y="111.5951" style="fill:black; clip-path:url(#clipPath1); stroke:none;" xml:space="preserve">2.0</text>
    </g>
    <g style="fill:gray; text-rendering:optimizeLegibility; font-size:10; font-family:sans-serif; stroke:gray;">
      <line x1="49.9434" x2="51.9434" y1="107.8158" style="fill:none; clip-path:url(#clipPath1);" y2="107.8158"/>
      <text x="30.1328" y="88.3947" style="fill:black; clip-path:url(#clipPath1); stroke:none;" xml:space="preserve">2.5</text>
    </g>
    <g style="fill:gray; text-rendering:optimizeLegibility; font-size:10; font-family:sans-serif; stroke:gray;">
      <line x1="49.9434" x2="51.9434" y1="84.6154" style="fill:none; clip-path:url(#clipPath1);" y2="84.6154"/>
      <text x="30.1328" y="65.1944" style="fill:black; clip-path:url(#clipPath1); stroke:none;" xml:space="preserve">3.0</text>
    </g>
    <g style="fill:gray; text-rendering:optimizeLegibility; font-size:10; font-family:sans-serif; stroke:gray;">
      <line x1="49.9434" x2="51.9434" y1="61.4151" style="fill:none; clip-path:url(#clipPath1);" y2="61.4151"/>
      <text x="30.1328" y="41.994" style="fill:black; clip-path:url(#clipPath1); stroke:none;" xml:space="preserve">3.5</text>
    </g>
    <g style="fill:gray; text-rendering:optimizeLegibility; font-size:10; font-family:sans-serif; stroke:gray;">
      <line x1="49.9434" x2="51.9434" y1="38.2147" style="fill:none; clip-path:url(#clipPath1);" y2="38.2147"/>
      <text x="-54.0566" y="120.0859" transform="matrix(0,-1,1,0,-97.4844,133.6172)" style="font-size:12; clip-path:url(#clipPath2); fill:black; stroke:none;" xml:space="preserve">Response time (seconds)</text>
    </g>
    <g style="stroke-linecap:butt; fill:white; text-rendering:optimizeLegibility; font-family:sans-serif; stroke-linejoin:bevel; stroke-dasharray:2,2; stroke:white; stroke-width:0.5; stroke-miterlimit:0;">
      <line x1="57.7577" x2="57.7577" y1="30.4844" style="fill:none; clip-path:url(#clipPath3);" y2="200.6172"/>
      <line x1="95.0075" x2="95.0075" y1="30.4844" style="fill:none; clip-path:url(#clipPath3);" y2="200.6172"/>
      <line x1="132.2574" x2="132.2574" y1="30.4844" style="fill:none; clip-path:url(#clipPath3);" y2="200.6172"/>
      <line x1="169.5073" x2="169.5073" y1="30.4844" style="fill:none; clip-path:url(#clipPath3);" y2="200.6172"/>
      <line x1="206.7571" x2="206.7571" y1="30.4844" style="fill:none; clip-path:url(#clipPath3);" y2="200.6172"/>
      <line x1="244.007" x2="244.007" y1="30.4844" style="fill:none; clip-path:url(#clipPath3);" y2="200.6172"/>
      <line x1="281.2569" x2="281.2569" y1="30.4844" style="fill:none; clip-path:url(#clipPath3);" y2="200.6172"/>
      <line x1="318.5067" x2="318.5067" y1="30.4844" style="fill:none; clip-path:url(#clipPath3);" y2="200.6172"/>
      <line x1="355.7566" x2="355.7566" y1="30.4844" style="fill:none; clip-path:url(#clipPath3);" y2="200.6172"/>
      <line x1="393.0065" x2="393.0065" y1="30.4844" style="fill:none; clip-path:url(#clipPath3);" y2="200.6172"/>
      <line x1="430.2563" x2="430.2563" y1="30.4844" style="fill:none; clip-path:url(#clipPath3);" y2="200.6172"/>
      <line x1="467.5062" x2="467.5062" y1="30.4844" style="fill:none; clip-path:url(#clipPath3);" y2="200.6172"/>
      <line x1="55.9434" x2="488" y1="200.6172" style="fill:none; clip-path:url(#clipPath3);" y2="200.6172"/>
      <line x1="55.9434" x2="488" y1="177.4168" style="fill:none; clip-path:url(#clipPath3);" y2="177.4168"/>
      <line x1="55.9434" x2="488" y1="154.2165" style="fill:none; clip-path:url(#clipPath3);" y2="154.2165"/>
      <line x1="55.9434" x2="488" y1="131.0161" style="fill:none; clip-path:url(#clipPath3);" y2="131.0161"/>
      <line x1="55.9434" x2="488" y1="107.8158" style="fill:none; clip-path:url(#clipPath3);" y2="107.8158"/>
      <line x1="55.9434" x2="488" y1="84.6154" style="fill:none; clip-path:url(#clipPath3);" y2="84.6154"/>
      <line x1="55.9434" x2="488" y1="61.4151" style="fill:none; clip-path:url(#clipPath3);" y2="61.4151"/>
      <line x1="55.9434" x2="488" y1="38.2147" style="fill:none; clip-path:url(#clipPath3);" y2="38.2147"/>
    </g>
    <g style="fill:rgb(85,85,255); text-rendering:optimizeLegibility; font-family:sans-serif; stroke-linejoin:round; stroke-linecap:round; stroke:rgb(85,85,255);">
      <path d="M75.5823 194.2603 L77.1647 194.8516 L78.7471 195.2417 L80.3295 195.2294 L81.9119 194.6136 L83.4943 193.1931 L84.9493 191.1072 L86.4044 188.6351 L87.8595 186.2406 L89.3146 184.3881 L90.7696 183.5417 L92.181 183.974 L93.5925 185.331 L95.0039 187.1539 L96.4153 188.984 L97.8267 190.3626 L99.5801 190.9829 L101.3335 190.6808 L103.0868 189.9387 L104.8402 189.2388 L106.5935 189.0634 L108.2341 189.6634 L109.8747 190.7095 L111.5153 191.7666 L113.1559 192.3993 L114.7965 192.1723 L116.5353 190.6441 L118.2741 187.9564 L120.013 184.404 L121.7518 180.2821 L123.4906 175.8856 L125.1203 171.8011 L126.7499 168.1157 L128.3796 165.2104 L130.0093 163.4663 L131.639 163.2646 L133.1341 164.6347 L134.6292 167.1537 L136.1243 170.3519 L137.6193 173.7594 L139.1144 176.9064 L140.8969 179.8241 L142.6794 181.8645 L144.4618 183.1884 L146.2443 183.9568 L148.0267 184.3305 L149.7583 184.4604 L151.4898 184.4707 L153.2214 184.4624 L154.9529 184.5367 L156.6844 184.7946 L158.2632 185.2478 L159.8419 185.8499 L161.4207 186.5131 L162.9995 187.1495 L164.5782 187.6714 L166.2952 188.0116 L168.0122 188.031 L169.7292 187.6484 L171.4462 186.7823 L173.1631 185.3514 L174.6546 183.643 L176.146 181.7305 L177.6375 179.8972 L179.1289 178.4267 L180.6204 177.6024 L182.2937 177.6514 L183.967 178.3915 L185.6404 179.3438 L187.3137 180.0293 L188.987 179.9689 L190.4967 179.0272 L192.0063 177.6392 L193.516 176.3554 L195.0256 175.7266 L196.5352 176.3032 L198.2195 178.768 L199.9037 182.5261 L201.588 186.6852 L203.2722 190.3527 L204.9565 192.6363 L206.4479 192.9473 L207.9394 191.8194 L209.4308 189.5987 L210.9223 186.6313 L212.4137 183.2633 L213.9015 179.7731 L215.3893 176.1169 L216.8772 172.1826 L218.365 167.8585 L219.8528 163.0326 L221.4424 157.3876 L223.0321 152.0588 L224.6218 148.063 L226.2115 146.4172 L227.8011 148.138 L229.6236 154.9116 L231.4461 165.0556 L233.2686 176.1792 L235.091 185.8914 L236.9135 191.8011 L238.4013 192.5797 L239.8891 190.5545 L241.377 187.0497 L242.8648 183.3892 L244.3526 180.8969 L245.8222 180.5202 L247.2918 181.7133 L248.7614 183.6144 L250.2311 185.3619 L251.7007 186.0938 L253.0976 185.289 L254.4944 183.4083 L255.8913 181.0714 L257.2882 178.8986 L258.6851 177.5096 L260.2929 177.448 L261.9008 178.7541 L263.5086 180.9354 L265.1165 183.4997 L266.7243 185.9546 L268.4013 187.9415 L270.0783 189.167 L271.7552 189.5242 L273.4322 188.9066 L275.1092 187.2074 L276.7025 184.6098 L278.2958 181.5453 L279.8891 178.6196 L281.4824 176.4383 L283.0757 175.6072 L284.5963 176.4398 L286.1168 178.4423 L287.6374 181.0028 L289.1579 183.5097 L290.6785 185.3514 L292.2027 186.0722 L293.7268 185.8344 L295.251 184.9625 L296.7752 183.7808 L298.2994 182.6137 L299.9727 181.6521 L301.6461 181.0309 L303.3194 180.6817 L304.9927 180.5361 L306.6661 180.5257 L308.3758 180.5871 L310.0855 180.6657 L311.7952 180.709 L313.5049 180.6644 L315.2146 180.4793 L316.8079 180.1528 L318.4012 179.729 L319.9945 179.2781 L321.5879 178.8707 L323.1812 178.5769 L324.8981 178.4441 L326.6151 178.4676 L328.3321 178.59 L330.0491 178.7538 L331.7661 178.9017 L333.2939 178.9822 L334.8217 179.0182 L336.3495 179.0231 L337.8774 179.0107 L339.4052 178.9945 L340.9694 178.9814 L342.5336 178.9536 L344.0978 178.8858 L345.662 178.7531 L347.2262 178.5305 L348.8632 178.1667 L350.5002 177.6059 L352.1371 176.7769 L353.774 175.6085 L355.411 174.0296 L356.9315 172.1986 L358.4521 170.2881 L359.9727 168.6343 L361.4932 167.5731 L363.0138 167.4407 L364.8071 168.7106 L366.6005 170.9394 L368.3939 173.3267 L370.1873 175.0721 L371.9807 175.3752 L373.614 173.9491 L375.2473 171.4297 L376.8806 168.5839 L378.5139 166.1788 L380.1472 164.9814 L381.726 165.4712 L383.3048 167.1693 L384.8835 169.4392 L386.4623 171.6443 L388.041 173.148 L389.5361 173.4877 L391.0312 172.9198 L392.5263 171.7366 L394.0214 170.2304 L395.5165 168.6935 L397.299 167.147 L399.0814 165.9852 L400.8639 165.2207 L402.6463 164.8664 L404.4288 164.935 L406.1603 165.3975 L407.8919 166.1541 L409.6234 167.0878 L411.3549 168.0815 L413.0865 169.0183 L414.8035 169.7825 L416.5204 170.3026 L418.2375 170.5055 L419.9544 170.3183 L421.6714 169.6679 L423.3557 168.5235 L425.0399 166.8782 L426.7242 164.7472 L428.4084 162.1456 L430.0927 159.0886 L431.5841 156.0535 L433.0756 152.9247 L434.567 149.954 L436.0584 147.3929 L437.5499 145.4931 L439.0414 144.4166 L440.5328 143.966 L442.0242 143.854 L443.5157 143.7937 L445.0071 143.4979 L446.6805 142.6536 L448.3538 141.4872 L450.0271 140.3347 L451.7005 139.5319 L453.3738 139.4147 L454.8835 139.943 L456.3931 140.1518 L457.9027 138.89 L459.4124 135.0065 L460.922 127.3505 L462.4098 115.3363 L463.8976 99.4963 L465.3854 80.7869 L466.8732 60.1646 L468.3611 38.5859" style="fill:none; clip-path:url(#clipPath3);"/>
      <path d="M75.5823 190.6874 L77.1647 192.9194 L78.7471 194.7836 L80.3295 195.9123 L81.9119 195.9378 L83.4943 194.4923 L84.9493 191.724 L86.4044 188.1652 L87.8595 184.5799 L89.3146 181.7323 L90.7696 180.3865 L92.181 181.0102 L93.5925 183.0915 L95.0039 185.956 L96.4153 188.9294 L97.8267 191.3371 L99.5801 192.819 L101.3335 192.8575 L103.0868 191.9232 L104.8402 190.4862 L106.5935 189.017 L108.2341 187.946 L109.8747 187.1396 L111.5153 186.479 L113.1559 185.8452 L114.7965 185.1194 L116.5353 184.1398 L118.2741 182.9176 L120.013 181.4476 L121.7518 179.724 L123.4906 177.7416 L125.1203 175.714 L126.7499 173.8706 L128.3796 172.6281 L130.0093 172.4031 L131.639 173.612 L133.1341 176.1807 L134.6292 179.6818 L136.1243 183.49 L137.6193 186.9803 L139.1144 189.5274 L140.8969 190.7506 L142.6794 190.4142 L144.4618 189.1879 L146.2443 187.7411 L148.0267 186.7434 L149.7583 186.6805 L151.4898 187.3352 L153.2214 188.3693 L154.9529 189.4448 L156.6844 190.2234 L158.2632 190.4509 L159.8419 190.2671 L161.4207 189.7887 L162.9995 189.132 L164.5782 188.4138 L166.2952 187.6723 L168.0122 186.9863 L169.7292 186.3462 L171.4462 185.7425 L173.1631 185.1658 L174.6546 184.6883 L176.146 184.2718 L177.6375 183.9641 L179.1289 183.8131 L180.6204 183.8665 L182.2937 184.1981 L183.967 184.7286 L185.6404 185.3392 L187.3137 185.9111 L188.987 186.3258 L190.4967 186.4863 L192.0063 186.4549 L193.516 186.2643 L195.0256 185.9474 L196.5352 185.537 L198.2195 185.0439 L199.9037 184.7313 L201.588 184.8556 L203.2722 185.6729 L204.9565 187.4394 L206.4479 189.799 L207.9394 192.0646 L209.4308 193.1967 L210.9223 192.1561 L212.4137 187.9034 L213.9015 179.952 L215.3893 169.894 L216.8772 159.8538 L218.365 151.9556 L219.8528 148.3236 L221.4424 150.732 L223.0321 158.0699 L224.6218 167.9713 L226.2115 178.0703 L227.8011 186.001 L229.6236 190.2602 L231.4461 190.3241 L233.2686 187.9566 L235.091 184.9222 L236.9135 182.9849 L238.4013 183.1734 L239.8891 184.5999 L241.377 186.5958 L242.8648 188.4922 L244.3526 189.6202 L245.8222 189.5087 L247.2918 188.4456 L248.7614 186.8814 L250.2311 185.2667 L251.7007 184.0521 L253.0976 183.5821 L254.4944 183.6834 L255.8913 184.1589 L257.2882 184.8116 L258.6851 185.4441 L260.2929 185.9543 L261.9008 186.2556 L263.5086 186.4272 L265.1165 186.548 L266.7243 186.697 L268.4013 186.9445 L270.0783 187.2581 L271.7552 187.5871 L273.4322 187.881 L275.1092 188.089 L276.7025 188.169 L278.2958 188.1304 L279.8891 187.9774 L281.4824 187.7147 L283.0757 187.3466 L284.5963 186.9097 L286.1168 186.4363 L287.6374 185.9819 L289.1579 185.6018 L290.6785 185.3514 L292.2027 185.2717 L293.7268 185.3468 L295.251 185.5452 L296.7752 185.8355 L298.2994 186.1866 L299.9727 186.5931 L301.6461 186.9249 L303.3194 187.072 L304.9927 186.9245 L306.6661 186.3722 L308.3758 185.3425 L310.0855 184.0603 L311.7952 182.8104 L313.5049 181.8775 L315.2146 181.5465 L316.8079 181.9556 L318.4012 182.9166 L319.9945 184.2112 L321.5879 185.6214 L323.1812 186.929 L324.8981 187.9995 L326.6151 188.586 L328.3321 188.5769 L330.0491 187.8606 L331.7661 186.3258 L333.2939 184.2666 L334.8217 181.904 L336.3495 179.6707 L337.8774 177.9997 L339.4052 177.324 L340.9694 177.9483 L342.5336 179.5316 L344.0978 181.5359 L345.662 183.4232 L347.2262 184.6553 L348.8632 184.8094 L350.5002 183.9467 L352.1371 182.3575 L353.774 180.3316 L355.411 178.1592 L356.9315 176.2357 L358.4521 174.4999 L359.9727 173.016 L361.4932 171.848 L363.0138 171.0599 L364.8071 170.6721 L366.6005 170.8036 L368.3939 171.3565 L370.1873 172.2325 L371.9807 173.3336 L373.614 174.446 L375.2473 175.5696 L376.8806 176.6103 L378.5139 177.474 L380.1472 178.0665 L381.726 178.3029 L383.3048 178.1727 L384.8835 177.6505 L386.4623 176.711 L388.041 175.3288 L389.5361 173.6249 L391.0312 171.6962 L392.5263 169.7379 L394.0214 167.9451 L395.5165 166.5127 L397.299 165.4363 L399.0814 164.8151 L400.8639 164.3144 L402.6463 163.5997 L404.4288 162.3366 L406.1603 160.3624 L407.8919 157.8201 L409.6234 154.975 L411.3549 152.0923 L413.0865 149.4372 L414.8035 147.263 L416.5204 145.6682 L418.2375 144.7474 L419.9544 144.5956 L421.6714 145.3076 L423.3557 146.8289 L425.0399 148.7165 L426.7242 150.4141 L428.4084 151.3656 L430.0927 151.0148 L431.5841 149.2835 L433.0756 146.3863 L434.567 142.6148 L436.0584 138.2604 L437.5499 133.6146" style="fill:none; stroke-width:3; clip-path:url(#clipPath3); stroke:rgb(255,85,85);"/>
    </g>
    <g style="font-family:sans-serif; stroke-width:0.5; text-rendering:optimizeLegibility;">
      <rect x="55.9434" y="30.4844" width="432.0566" style="fill:none; clip-path:url(#clipPath1);" height="170.1328"/>
    </g>
  </g>
</svg>
